<svg width="400" height="420" viewBox="0 0 400 420" fill="none" xmlns="http://www.w3.org/2000/svg">
<path d="M342.646 387.471C266.173 429.835 142.19 429.835 65.7169 387.471C-10.7559 345.108 -10.7559 276.431 65.7169 234.068C142.19 191.705 266.173 191.715 342.646 234.068C419.118 276.421 419.118 345.108 342.646 387.471Z" fill="#F5F5F5"/>
<path d="M167.149 330.672L231.585 367.609C232.254 367.95 232.995 368.128 233.746 368.128C234.497 368.128 235.237 367.95 235.906 367.609L369.089 290.708C369.349 290.62 369.575 290.452 369.735 290.229C369.895 290.006 369.981 289.738 369.981 289.464C369.981 289.189 369.895 288.921 369.735 288.698C369.575 288.475 369.349 288.307 369.089 288.219L300.442 248.773C299.776 248.437 299.039 248.267 298.294 248.277C297.548 248.287 296.816 248.478 296.16 248.833L167.11 328.133C166.852 328.233 166.631 328.41 166.477 328.639C166.322 328.869 166.242 329.14 166.246 329.416C166.251 329.693 166.339 329.961 166.501 330.186C166.662 330.41 166.889 330.58 167.149 330.672Z" fill="#E0E0E0"/>
<path d="M102.176 348.911L33.6875 309.386C33.4286 309.295 33.2043 309.126 33.0457 308.902C32.887 308.678 32.8018 308.411 32.8018 308.136C32.8018 307.862 32.887 307.594 33.0457 307.37C33.2043 307.147 33.4286 306.978 33.6875 306.887L101.966 267.212C102.635 266.873 103.373 266.697 104.122 266.697C104.871 266.697 105.609 266.873 106.277 267.212L174.974 306.897C175.235 306.985 175.46 307.152 175.62 307.376C175.78 307.599 175.866 307.867 175.866 308.141C175.866 308.416 175.78 308.684 175.62 308.907C175.46 309.13 175.235 309.297 174.974 309.386L106.487 348.911C105.818 349.25 105.08 349.426 104.331 349.426C103.582 349.426 102.844 349.25 102.176 348.911Z" fill="#E0E0E0"/>
<path d="M283.845 382.513C303.25 382.513 318.98 373.148 318.98 361.595C318.98 350.043 303.25 340.678 283.845 340.678C264.44 340.678 248.71 350.043 248.71 361.595C248.71 373.148 264.44 382.513 283.845 382.513Z" fill="#E0E0E0"/>
<path d="M333.605 358.469C352.823 358.469 368.402 349.193 368.402 337.751C368.402 326.308 352.823 317.032 333.605 317.032C314.388 317.032 298.809 326.308 298.809 337.751C298.809 349.193 314.388 358.469 333.605 358.469Z" fill="#E0E0E0"/>
<path d="M38.4469 282.116C38.3473 276.142 33.7974 263.767 27.4354 256.091C21.0735 248.415 11.1871 242.889 4.27755 245.368C-2.15409 247.698 -1.30783 256.17 6.64709 261.666C14.602 267.162 26.5593 274.022 30.1534 283.689L37.6106 295.497L38.4469 282.116Z" fill="#042E66"/>
<path opacity="0.1" d="M38.4469 282.116C38.3473 276.142 33.7974 263.767 27.4354 256.091C21.0735 248.415 11.1871 242.889 4.27755 245.368C-2.15409 247.698 -1.30783 256.17 6.64709 261.666C14.602 267.162 26.5593 274.022 30.1534 283.689L37.6106 295.497L38.4469 282.116Z" fill="black"/>
<path d="M39.0345 290.31C38.9405 290.304 38.8511 290.267 38.7793 290.206C38.7076 290.146 38.6574 290.063 38.6362 289.971C34.2655 269.561 17.4098 253.213 7.43383 249.709C7.32431 249.67 7.23449 249.59 7.1841 249.486C7.1337 249.381 7.12683 249.261 7.16501 249.151C7.18285 249.096 7.21166 249.045 7.2497 249.002C7.28774 248.958 7.33421 248.923 7.38632 248.898C7.43843 248.873 7.49509 248.858 7.55288 248.856C7.61067 248.853 7.66839 248.862 7.72255 248.883C17.8877 252.447 35.052 269.073 39.4925 289.782C39.516 289.896 39.4936 290.014 39.4302 290.111C39.3667 290.208 39.2674 290.276 39.154 290.3L39.0345 290.31Z" fill="white"/>
<path d="M36.2571 303.472C35.2615 300.117 31.0202 294.621 24.3098 290.141C16.8526 285.163 7.48396 283.012 5.26375 279.099C2.60547 274.39 6.52817 269.83 14.1147 270.637C21.7013 271.443 35.1818 281.529 37.5812 297.04L36.2571 303.472Z" fill="#042E66"/>
<path d="M37.6105 299.908C37.5263 299.901 37.4458 299.87 37.3787 299.819C37.3116 299.768 37.2607 299.698 37.2322 299.619C30.6512 282.206 17.1607 276.232 10.9481 275.575C10.8904 275.569 10.8345 275.551 10.7837 275.523C10.7329 275.495 10.6881 275.457 10.652 275.412C10.6158 275.367 10.5891 275.315 10.5733 275.259C10.5574 275.203 10.5528 275.145 10.5598 275.087C10.5659 275.03 10.5835 274.974 10.6115 274.924C10.6396 274.873 10.6776 274.829 10.7231 274.794C10.7687 274.759 10.8209 274.733 10.8767 274.718C10.9324 274.703 10.9906 274.7 11.0476 274.709C17.9173 275.475 31.3282 281.519 38.0486 299.31C38.0709 299.364 38.0822 299.421 38.0816 299.479C38.0811 299.537 38.0689 299.594 38.0456 299.647C38.0223 299.7 37.9885 299.748 37.9463 299.788C37.904 299.827 37.8541 299.858 37.7997 299.878C37.7387 299.898 37.6748 299.908 37.6105 299.908Z" fill="white"/>
<path d="M362.816 262.293C362.816 262.293 362.119 251.979 365.704 243.208C369.288 234.436 375.311 228.273 381.633 226.591C387.955 224.908 394.278 229.876 388.125 235.213C381.972 240.549 370.483 246.951 367.635 263.219L362.816 262.293Z" fill="#042E66"/>
<path opacity="0.15" d="M362.816 262.293C362.816 262.293 362.119 251.979 365.704 243.208C369.288 234.436 375.311 228.273 381.633 226.591C387.955 224.908 394.278 229.876 388.125 235.213C381.972 240.549 370.483 246.951 367.635 263.219L362.816 262.293Z" fill="black"/>
<path d="M364.26 259.307H364.191C364.101 259.287 364.022 259.234 363.97 259.158C363.918 259.082 363.897 258.989 363.912 258.898C367.645 240.898 379.314 231.529 384.969 229.09C385.054 229.053 385.149 229.051 385.235 229.085C385.321 229.118 385.39 229.185 385.427 229.269C385.464 229.354 385.466 229.449 385.432 229.535C385.398 229.621 385.332 229.69 385.248 229.727C379.712 232.116 368.322 241.316 364.599 259.038C364.581 259.114 364.538 259.182 364.476 259.231C364.415 259.28 364.339 259.306 364.26 259.307Z" fill="white"/>
<path d="M395.164 253.542C394.796 255.055 393.402 256.061 392.088 256.897C390.773 257.733 389.35 258.63 388.822 260.093C387.767 263.08 390.992 266.336 389.818 269.243C389.525 269.833 389.115 270.358 388.614 270.786C388.112 271.214 387.53 271.535 386.9 271.732C385.864 272.078 384.811 272.371 383.744 272.608C383.231 272.694 382.712 272.748 382.191 272.767C380.646 272.712 379.125 273.163 377.86 274.052C375.949 275.635 375.789 278.432 374.873 280.742C374.299 282.108 373.435 283.333 372.342 284.333C371.249 285.333 369.952 286.085 368.541 286.536C367.605 286.835 365.863 287.333 364.798 286.975L364.569 286.885C364.41 286.765 364.21 286.596 364.111 286.507V286.457C363.484 285.133 363.832 283.58 363.593 282.146C363.599 282.06 363.599 281.973 363.593 281.887C363.225 280.234 362.876 278.591 362.528 276.909C361.891 273.872 361.303 270.816 360.756 267.759C360.417 265.768 359.76 263.637 360.278 261.616C360.825 259.386 363.135 258.918 363.633 256.738C363.842 255.872 363.872 254.976 364.061 254.099C364.368 252.812 365.022 251.634 365.953 250.693C366.883 249.752 368.054 249.084 369.338 248.763C373.32 247.817 377.562 250.426 381.534 249.39C382.53 249.112 383.525 248.614 384.521 248.235C387.677 247.021 391.63 247.24 393.969 249.689C394.469 250.184 394.839 250.794 395.048 251.466C395.256 252.138 395.296 252.851 395.164 253.542Z" fill="#042E66"/>
<g opacity="0.07">
<path d="M395.164 253.542C394.796 255.055 393.402 256.061 392.088 256.897C390.773 257.733 389.35 258.63 388.822 260.093C387.767 263.08 390.992 266.336 389.818 269.243C389.525 269.833 389.115 270.358 388.614 270.786C388.112 271.214 387.53 271.535 386.9 271.732C385.88 272.128 384.823 272.421 383.744 272.608C383.231 272.694 382.712 272.748 382.191 272.767C380.646 272.712 379.125 273.163 377.86 274.052C375.949 275.635 375.789 278.432 374.873 280.742C374.299 282.108 373.435 283.333 372.342 284.333C371.249 285.333 369.952 286.085 368.541 286.536C367.605 286.835 365.863 287.333 364.798 286.975L364.569 286.885C364.506 286.858 364.446 286.825 364.39 286.785C364.282 286.708 364.188 286.614 364.111 286.507V286.457C363.364 285.411 363.762 283.4 363.593 282.146C363.599 282.06 363.599 281.973 363.593 281.887C363.225 280.234 362.876 278.591 362.528 276.909C361.891 273.872 361.303 270.816 360.756 267.759C360.417 265.768 359.76 263.637 360.278 261.616C360.825 259.386 363.135 258.918 363.633 256.738C363.842 255.872 363.872 254.976 364.061 254.099C364.368 252.812 365.022 251.634 365.953 250.693C366.883 249.752 368.054 249.084 369.338 248.763C373.32 247.817 377.562 250.426 381.534 249.39C382.53 249.112 383.525 248.614 384.521 248.235C387.677 247.021 391.63 247.24 393.969 249.689C394.469 250.184 394.839 250.794 395.048 251.466C395.256 252.138 395.296 252.851 395.164 253.542Z" fill="#263238"/>
</g>
<path d="M362.548 280.135C362.456 280.125 362.372 280.08 362.313 280.009C362.253 279.939 362.224 279.848 362.229 279.756C363.972 257.803 385.467 250.744 390.694 250.167C390.786 250.158 390.877 250.186 390.95 250.243C391.022 250.301 391.07 250.384 391.082 250.475C391.088 250.521 391.084 250.568 391.071 250.612C391.059 250.657 391.038 250.698 391.009 250.734C390.98 250.77 390.944 250.8 390.904 250.823C390.864 250.845 390.819 250.859 390.773 250.864C385.656 251.421 364.629 258.341 362.896 279.816C362.889 279.903 362.849 279.984 362.784 280.043C362.72 280.102 362.635 280.135 362.548 280.135Z" fill="white"/>
<path d="M385.108 265.041C385.037 265.041 384.968 265.021 384.909 264.982C382.549 263.59 379.912 262.735 377.184 262.479C374.457 262.222 371.706 262.57 369.129 263.498C369.085 263.516 369.038 263.525 368.99 263.524C368.943 263.524 368.896 263.513 368.853 263.494C368.81 263.474 368.771 263.446 368.739 263.411C368.707 263.376 368.682 263.335 368.667 263.291C368.651 263.246 368.645 263.198 368.648 263.151C368.652 263.104 368.665 263.058 368.686 263.016C368.708 262.974 368.738 262.936 368.775 262.906C368.812 262.876 368.854 262.854 368.9 262.841C371.58 261.875 374.442 261.514 377.279 261.785C380.115 262.055 382.857 262.949 385.307 264.404C385.346 264.43 385.379 264.463 385.404 264.502C385.429 264.541 385.445 264.585 385.453 264.631C385.46 264.676 385.458 264.723 385.447 264.768C385.436 264.813 385.415 264.855 385.387 264.892C385.357 264.939 385.316 264.977 385.267 265.004C385.218 265.03 385.164 265.043 385.108 265.041Z" fill="white"/>
<path d="M178.957 156.042C179.783 155.028 180.184 153.734 180.075 152.431C179.965 151.129 179.355 149.919 178.372 149.057C177.389 148.195 176.11 147.749 174.804 147.811C173.498 147.873 172.267 148.44 171.371 149.391C171.371 148.883 171.45 148.396 171.45 147.838C171.449 145.157 170.745 142.522 169.409 140.197C168.073 137.872 166.151 135.938 163.835 134.586C161.519 133.235 158.889 132.514 156.208 132.494C153.526 132.475 150.887 133.159 148.551 134.477C148.912 133.634 149.098 132.726 149.099 131.809C149.1 130.623 148.787 129.457 148.19 128.432C147.594 127.407 146.736 126.558 145.704 125.973C144.673 125.388 143.504 125.087 142.318 125.101C141.132 125.116 139.971 125.444 138.954 126.054C139.069 125.269 139.129 124.478 139.133 123.685C139.151 119.775 137.85 115.973 135.44 112.894C133.031 109.816 129.653 107.64 125.853 106.719C122.053 105.797 118.054 106.185 114.502 107.818C110.949 109.452 108.052 112.236 106.278 115.72C105.814 114.631 105.043 113.7 104.058 113.043C103.074 112.386 101.919 112.03 100.735 112.019C99.5513 112.009 98.3902 112.344 97.394 112.983C96.3979 113.623 95.61 114.539 95.127 115.62C93.5644 113.104 91.2248 111.165 88.462 110.097C85.6993 109.029 82.6639 108.891 79.8153 109.702C76.9666 110.513 74.4597 112.23 72.6739 114.593C70.8882 116.956 69.9208 119.837 69.9182 122.798C69.9238 123.482 69.9804 124.164 70.0874 124.839C69.3475 124.234 68.4509 123.852 67.5019 123.736C66.553 123.62 65.5907 123.777 64.7271 124.186C63.8635 124.596 63.134 125.243 62.6236 126.051C62.1131 126.86 61.8427 127.796 61.8438 128.752C61.8438 128.752 61.8438 128.752 61.8438 128.812C60.0073 127.739 57.9176 127.175 55.7905 127.179C52.8638 127.182 50.0368 128.243 47.8304 130.166C45.624 132.089 44.1867 134.744 43.7834 137.643C42.4233 137.13 40.944 137.02 39.5231 137.327C38.1023 137.635 36.8005 138.346 35.7741 139.375C34.7478 140.405 34.0406 141.709 33.7376 143.131C33.4347 144.553 33.5488 146.032 34.0663 147.39C30.2494 148.91 27.0815 151.713 25.1074 155.316C23.1332 158.919 22.4762 163.098 23.2493 167.133C24.0224 171.168 26.1773 174.808 29.3434 177.426C32.5095 180.044 36.4889 181.478 40.5975 181.48L104.068 224.241L171.958 180.534C174.833 180.527 177.627 179.586 179.919 177.851C182.211 176.116 183.877 173.682 184.664 170.918C185.451 168.153 185.317 165.207 184.282 162.525C183.247 159.844 181.368 157.571 178.927 156.052L178.957 156.042ZM170.057 154.19C170.071 154.156 170.088 154.123 170.106 154.091C170.111 154.12 170.111 154.15 170.106 154.18L170.057 154.19Z" fill="#F5F5F5"/>
<path d="M55.8002 127.169C52.8735 127.173 50.0466 128.233 47.8402 130.156C45.6338 132.079 44.1965 134.734 43.7932 137.633C42.4331 137.12 40.9537 137.01 39.5329 137.318C38.1121 137.625 36.8102 138.336 35.7839 139.366C34.7575 140.395 34.0504 141.699 33.7474 143.121C33.4444 144.543 33.5585 146.022 34.076 147.38C30.2591 148.9 27.0913 151.703 25.1171 155.306C23.143 158.909 22.486 163.088 23.2591 167.123C24.0321 171.158 26.187 174.798 29.3531 177.416C32.5192 180.034 36.4987 181.468 40.6072 181.47L104.077 224.231L167.318 183.521L168.941 177.438C160.329 188.618 148.82 179.717 148.82 179.717C148.82 179.717 147.944 185.422 143.125 185.771C141.79 185.9 140.446 185.621 139.272 184.973C138.097 184.324 137.147 183.336 136.544 182.137C135.918 184.685 134.547 186.989 132.605 188.753C130.663 190.518 128.239 191.663 125.642 192.043C116.244 193.785 110.758 183.471 110.758 183.471C110.758 183.471 108.996 188.12 104.077 186.876C99.159 185.631 100.901 182.893 100.901 182.893C100.901 182.893 98.1037 185.353 93.2949 182.784C88.4861 180.215 88.1575 172.688 88.1575 172.688C85.6173 173.693 82.8418 173.945 80.162 173.416C77.4822 172.886 75.0113 171.597 73.0442 169.702C66.0749 163.081 71.9789 153.981 71.9789 153.981C61.5051 156.032 61.8934 147.44 61.8934 147.44C47.2579 145.439 48.3132 131.082 55.8002 127.169Z" fill="#F0F0F0"/>
<path d="M120.416 205.454L118.195 337.492L132.004 329.517L136.544 196.145L120.416 205.454Z" fill="#FAFAFA"/>
<path d="M136.544 196.145L132.004 329.517L145.763 321.582L152.713 186.806L136.544 196.145Z" fill="#042E66"/>
<path d="M108.637 212.254C107.309 212.948 105.825 213.291 104.326 213.25L104.326 344.043C105.825 344.084 107.309 343.741 108.637 343.047L118.195 337.532L120.415 205.494L108.637 212.254Z" fill="#042E66"/>
<path d="M159.453 313.677L168.772 308.291C170.046 307.456 171.128 306.361 171.947 305.077C172.765 303.793 173.302 302.35 173.521 300.843L185.21 168.049L168.941 177.438L159.453 313.677Z" fill="#042E66"/>
<path d="M152.713 186.806L145.764 321.582L159.453 313.677L168.941 177.438L152.713 186.806Z" fill="#FAFAFA"/>
<path d="M88.247 205.454L90.4673 337.492L76.6581 329.517L72.1182 196.145L88.247 205.454Z" fill="#042E66"/>
<path d="M72.1181 196.145L76.6581 329.517L62.8988 321.582L55.9395 186.806L72.1181 196.145Z" fill="#E6E6E6"/>
<path d="M99.9761 212.254C101.306 212.946 102.789 213.289 104.287 213.25L104.287 344.043C102.789 344.081 101.306 343.739 99.9761 343.047L90.4282 337.532L88.208 205.494L99.9761 212.254Z" fill="#E6E6E6"/>
<path d="M49.1998 313.677L39.8809 308.291C38.6058 307.458 37.5228 306.363 36.7039 305.079C35.8851 303.795 35.3491 302.351 35.1318 300.843L23.4434 168.049L39.7216 177.438L49.1998 313.677Z" fill="#E6E6E6"/>
<path d="M55.9402 186.806L62.8995 321.582L49.2098 313.677L39.7217 177.438L55.9402 186.806Z" fill="#042E66"/>
<path opacity="0.1" d="M88.247 205.454L90.4673 337.492L76.6581 329.517L72.1182 196.145L88.247 205.454Z" fill="black"/>
<path opacity="0.1" d="M55.9402 186.806L62.8995 321.582L49.2098 313.677L39.7217 177.438L55.9402 186.806Z" fill="black"/>
<path d="M100.901 182.923C100.114 184.009 99.0773 184.891 97.8789 185.494C96.6806 186.096 95.3551 186.403 94.0138 186.388C92.6724 186.374 91.3541 186.037 90.1694 185.408C88.9847 184.779 87.9682 183.875 87.2049 182.771C86.4416 181.668 85.9539 180.398 85.7826 179.068C85.6113 177.737 85.7614 176.385 86.2203 175.125C86.6793 173.864 87.4337 172.732 88.4203 171.823C89.4069 170.914 90.5971 170.255 91.8909 169.901C90.9853 171.155 90.4437 172.635 90.3257 174.178C90.2077 175.721 90.5179 177.266 91.2222 178.644C91.9264 180.022 92.9974 181.178 94.317 181.986C95.6366 182.794 97.1537 183.221 98.7009 183.222C99.4446 183.224 100.185 183.124 100.901 182.923Z" fill="#E0E0E0"/>
<path d="M110.758 183.471C110.854 184.34 110.74 185.219 110.425 186.035C110.111 186.851 109.605 187.58 108.951 188.16C108.297 188.74 107.513 189.154 106.665 189.369C105.817 189.583 104.931 189.591 104.079 189.391C103.228 189.192 102.437 188.791 101.772 188.223C101.108 187.655 100.589 186.935 100.261 186.125C99.9318 185.315 99.8021 184.438 99.8825 183.567C99.9629 182.696 100.251 181.858 100.723 181.121C100.842 182.267 101.323 183.344 102.097 184.198C103.073 185.269 104.434 185.909 105.881 185.98C107.329 186.051 108.746 185.546 109.822 184.576C110.18 184.249 110.494 183.877 110.758 183.471Z" fill="#E0E0E0"/>
<path d="M77.2657 143.706C78.0015 144.829 78.4574 146.111 78.5952 147.446C78.7329 148.781 78.5485 150.13 78.0575 151.379C77.5664 152.628 76.7829 153.741 75.7728 154.625C74.7628 155.508 73.5555 156.137 72.2523 156.458C70.9491 156.778 69.588 156.782 68.2831 156.468C66.9783 156.154 65.7678 155.532 64.7531 154.653C63.7384 153.775 62.9492 152.666 62.4516 151.419C61.9541 150.173 61.7627 148.825 61.8935 147.49C62.8457 148.942 64.2252 150.064 65.8416 150.699C67.4581 151.335 69.2319 151.453 70.9185 151.038C72.605 150.623 74.1213 149.695 75.2581 148.382C76.395 147.068 77.0964 145.435 77.2657 143.706Z" fill="#E0E0E0"/>
<path d="M64.263 151.681C64.6681 152.455 64.8817 153.316 64.8858 154.189C64.8899 155.063 64.6845 155.926 64.2866 156.704C63.8888 157.482 63.3101 158.153 62.5993 158.661C61.8884 159.17 61.0661 159.5 60.2011 159.625C59.3362 159.75 58.4539 159.666 57.6283 159.379C56.8027 159.093 56.0578 158.612 55.4561 157.979C54.8544 157.345 54.4134 156.576 54.1701 155.737C53.9269 154.897 53.8884 154.012 54.058 153.155C54.5867 154.18 55.4315 155.007 56.4674 155.514C57.1106 155.833 57.8104 156.023 58.5269 156.072C59.2433 156.12 59.9623 156.027 60.6428 155.798C61.3233 155.569 61.952 155.208 62.4928 154.735C63.0337 154.263 63.4762 153.689 63.7951 153.045C64.0084 152.612 64.1656 152.154 64.263 151.681Z" fill="#E0E0E0"/>
<path d="M151.21 163.927C151.293 165.269 151.053 166.612 150.51 167.842C149.967 169.072 149.137 170.154 148.089 170.997C147.041 171.839 145.807 172.418 144.489 172.685C143.171 172.951 141.808 172.898 140.515 172.529C139.222 172.159 138.037 171.485 137.058 170.563C136.08 169.64 135.337 168.496 134.893 167.227C134.448 165.958 134.314 164.601 134.503 163.27C134.692 161.938 135.197 160.672 135.977 159.576C136.07 161.121 136.589 162.61 137.476 163.878C138.363 165.146 139.583 166.144 141.002 166.763C142.42 167.381 143.982 167.595 145.515 167.381C147.048 167.167 148.491 166.533 149.686 165.55C150.26 165.074 150.771 164.529 151.21 163.927Z" fill="#E0E0E0"/>
<path d="M160.299 159.965C160.395 160.834 160.281 161.713 159.966 162.529C159.652 163.345 159.146 164.073 158.492 164.653C157.838 165.233 157.054 165.648 156.206 165.862C155.358 166.077 154.472 166.084 153.62 165.885C152.769 165.686 151.978 165.285 151.313 164.717C150.649 164.148 150.131 163.429 149.802 162.619C149.473 161.809 149.343 160.931 149.424 160.061C149.504 159.19 149.792 158.351 150.264 157.615C150.376 158.779 150.861 159.875 151.647 160.741C152.624 161.812 153.985 162.453 155.432 162.524C156.88 162.595 158.297 162.09 159.373 161.12C159.731 160.777 160.042 160.388 160.299 159.965Z" fill="#E0E0E0"/>
<path d="M136.614 150.725C137.396 151.116 138.072 151.688 138.587 152.394C139.101 153.099 139.439 153.918 139.572 154.781C139.706 155.644 139.63 156.527 139.352 157.355C139.074 158.183 138.601 158.932 137.974 159.54C137.347 160.147 136.583 160.596 135.747 160.848C134.911 161.1 134.026 161.148 133.168 160.988C132.309 160.827 131.502 160.464 130.812 159.927C130.123 159.391 129.573 158.697 129.207 157.904C130.109 158.352 131.118 158.543 132.121 158.455C133.125 158.366 134.084 158.002 134.894 157.403C135.704 156.803 136.332 155.991 136.709 155.057C137.087 154.123 137.199 153.103 137.033 152.109C136.957 151.631 136.816 151.165 136.614 150.725Z" fill="#E0E0E0"/>
<path d="M313.564 47.2417C300.74 40.0932 283.148 41.268 263.783 52.4686C224.427 75.1188 192.627 130.266 192.627 175.606C192.627 200.765 202.424 217.61 217.846 223.773C230.231 228.751 246.251 226.76 263.733 216.665C303 193.985 334.84 138.838 334.84 93.4977C334.84 70.5688 326.696 54.5295 313.564 47.2417ZM314.261 74.7404C310.278 79.1012 306.057 83.8602 301.845 88.8681C293.357 98.9023 285.382 109.36 277.951 120.2C276.955 121.693 275.959 123.137 275.103 124.491C274.148 123.781 272.961 123.458 271.778 123.585C272.077 122.53 272.375 121.425 272.684 120.27L271.141 122.609C270.185 121.902 268.998 121.578 267.815 121.703C268.234 120.27 268.652 118.716 269.07 117.084C272.144 105.29 274.501 93.3205 276.129 81.2418C276.965 75.4075 277.592 69.6529 278.06 64.3164C287.658 61.7278 296.22 62.6338 303.01 66.5864C307.408 68.2606 311.288 71.0625 314.261 74.7105V74.7404ZM217.149 126.652C224.526 109.258 236.016 92.8008 249.466 80.8535C249.616 82.5261 249.775 84.2186 249.974 85.9211C251.109 84.8259 252.254 83.7606 253.429 82.7252C253.837 87.524 254.424 92.5718 255.291 97.4204C256.75 106.846 259.117 116.109 262.359 125.078C262.768 126.223 263.236 127.279 263.604 128.254C262.299 129.69 261.181 131.286 260.279 133.003C259.393 132.675 258.467 132.317 257.471 132.008C249.693 129.687 241.633 128.444 233.517 128.314C229.378 128.144 225.232 128.214 221.101 128.523C221.4 127.816 221.709 127.1 222.017 126.403C220.375 126.423 218.752 126.512 217.149 126.622V126.652ZM224.576 201.76C223.419 200.774 222.343 199.695 221.36 198.535L220.633 199.889C212.888 193.308 208.208 181.968 208.208 166.615C208.208 165.48 208.268 164.305 208.268 163.161C212.579 161.697 217.228 160.014 221.938 158.093C231.711 154.072 241.158 149.298 250.193 143.816C251.497 142.999 252.742 142.223 253.887 141.446C253.916 142.76 254.312 144.04 255.032 145.14C256.027 144.523 256.953 143.925 257.839 143.328C257.862 144.701 258.296 146.036 259.084 147.161C258.088 148.396 257.093 149.77 256.017 151.213C249.417 160.243 241.412 172.36 234.194 184.696C230.769 190.42 227.543 196.185 224.576 201.73V201.76ZM267.706 200.566C260.737 204.608 253.937 207.017 247.794 207.764C248.162 206.828 248.53 205.882 248.889 204.936C247.23 205.366 245.543 205.682 243.841 205.882C246.081 200.217 248.262 194.214 250.342 188.101C254.458 176.118 257.944 163.928 260.786 151.582C261.145 149.999 261.414 148.465 261.722 147.032C262.448 146.772 263.145 146.438 263.803 146.036C264.507 145.624 265.174 145.151 265.794 144.622C266.056 145.799 266.389 146.96 266.79 148.097C266.79 148.197 266.85 148.286 266.87 148.386C267.148 148.256 267.427 148.097 267.716 147.938C268.422 147.529 269.089 147.056 269.707 146.524H269.757C269.999 147.703 270.312 148.867 270.693 150.009C273.277 158.501 276.793 166.682 281.176 174.401C283.14 177.955 285.307 181.392 287.668 184.696C281.784 190.888 275.066 196.23 267.706 200.566ZM307.142 149.481C307.052 149.69 306.943 149.899 306.833 150.108C303.788 147.9 300.595 145.904 297.275 144.134C296.549 143.726 295.792 143.338 295.045 142.96C290.004 140.702 284.747 138.961 279.355 137.763C278.309 137.524 277.274 137.344 276.368 137.225C276.517 136.876 276.636 136.538 276.756 136.229L275.422 135.921C274.437 135.69 273.44 135.514 272.435 135.393C273.137 133.711 273.557 131.925 273.68 130.106C274.824 129.569 276.079 128.902 277.323 128.244C287.171 122.769 296.631 116.625 305.639 109.856C310.318 106.381 314.938 102.687 319.249 99.1727C319.249 100.318 319.308 101.433 319.308 102.568C319.308 103.115 319.308 103.663 319.308 104.22L323.221 101.054C323.221 102.199 323.221 103.304 323.221 104.439C323.221 119.742 318.542 136.548 310.806 152.05C309.631 151.104 308.406 150.267 307.142 149.451V149.481Z" fill="#042E66"/>
<path opacity="0.4" d="M313.564 47.2417C300.74 40.0932 283.148 41.268 263.783 52.4686C224.427 75.1188 192.627 130.266 192.627 175.606C192.627 200.765 202.424 217.61 217.846 223.773C230.231 228.751 246.251 226.76 263.733 216.665C303 193.985 334.84 138.838 334.84 93.4977C334.84 70.5688 326.696 54.5295 313.564 47.2417ZM314.261 74.7404C310.278 79.1012 306.057 83.8602 301.845 88.8681C293.357 98.9023 285.382 109.36 277.951 120.2C276.955 121.693 275.959 123.137 275.103 124.491C274.148 123.781 272.961 123.458 271.778 123.585C272.077 122.53 272.375 121.425 272.684 120.27L271.141 122.609C270.185 121.902 268.998 121.578 267.815 121.703C268.234 120.27 268.652 118.716 269.07 117.084C272.144 105.29 274.501 93.3205 276.129 81.2418C276.965 75.4075 277.592 69.6529 278.06 64.3164C287.658 61.7278 296.22 62.6338 303.01 66.5864C307.408 68.2606 311.288 71.0625 314.261 74.7105V74.7404ZM217.149 126.652C224.526 109.258 236.016 92.8008 249.466 80.8535C249.616 82.5261 249.775 84.2186 249.974 85.9211C251.109 84.8259 252.254 83.7606 253.429 82.7252C253.837 87.524 254.424 92.5718 255.291 97.4204C256.75 106.846 259.117 116.109 262.359 125.078C262.768 126.223 263.236 127.279 263.604 128.254C262.299 129.69 261.181 131.286 260.279 133.003C259.393 132.675 258.467 132.317 257.471 132.008C249.693 129.687 241.633 128.444 233.517 128.314C229.378 128.144 225.232 128.214 221.101 128.523C221.4 127.816 221.709 127.1 222.017 126.403C220.375 126.423 218.752 126.512 217.149 126.622V126.652ZM224.576 201.76C223.419 200.774 222.343 199.695 221.36 198.535L220.633 199.889C212.888 193.308 208.208 181.968 208.208 166.615C208.208 165.48 208.268 164.305 208.268 163.161C212.579 161.697 217.228 160.014 221.938 158.093C231.711 154.072 241.158 149.298 250.193 143.816C251.497 142.999 252.742 142.223 253.887 141.446C253.916 142.76 254.312 144.04 255.032 145.14C256.027 144.523 256.953 143.925 257.839 143.328C257.862 144.701 258.296 146.036 259.084 147.161C258.088 148.396 257.093 149.77 256.017 151.213C249.417 160.243 241.412 172.36 234.194 184.696C230.769 190.42 227.543 196.185 224.576 201.73V201.76ZM267.706 200.566C260.737 204.608 253.937 207.017 247.794 207.764C248.162 206.828 248.53 205.882 248.889 204.936C247.23 205.366 245.543 205.682 243.841 205.882C246.081 200.217 248.262 194.214 250.342 188.101C254.458 176.118 257.944 163.928 260.786 151.582C261.145 149.999 261.414 148.465 261.722 147.032C262.448 146.772 263.145 146.438 263.803 146.036C264.507 145.624 265.174 145.151 265.794 144.622C266.056 145.799 266.389 146.96 266.79 148.097C266.79 148.197 266.85 148.286 266.87 148.386C267.148 148.256 267.427 148.097 267.716 147.938C268.422 147.529 269.089 147.056 269.707 146.524H269.757C269.999 147.703 270.312 148.867 270.693 150.009C273.277 158.501 276.793 166.682 281.176 174.401C283.14 177.955 285.307 181.392 287.668 184.696C281.784 190.888 275.066 196.23 267.706 200.566ZM307.142 149.481C307.052 149.69 306.943 149.899 306.833 150.108C303.788 147.9 300.595 145.904 297.275 144.134C296.549 143.726 295.792 143.338 295.045 142.96C290.004 140.702 284.747 138.961 279.355 137.763C278.309 137.524 277.274 137.344 276.368 137.225C276.517 136.876 276.636 136.538 276.756 136.229L275.422 135.921C274.437 135.69 273.44 135.514 272.435 135.393C273.137 133.711 273.557 131.925 273.68 130.106C274.824 129.569 276.079 128.902 277.323 128.244C287.171 122.769 296.631 116.625 305.639 109.856C310.318 106.381 314.938 102.687 319.249 99.1727C319.249 100.318 319.308 101.433 319.308 102.568C319.308 103.115 319.308 103.663 319.308 104.22L323.221 101.054C323.221 102.199 323.221 103.304 323.221 104.439C323.221 119.742 318.542 136.548 310.806 152.05C309.631 151.104 308.406 150.267 307.142 149.451V149.481Z" fill="white"/>
<path d="M313.564 47.2417C301.188 42.2636 285.169 44.2548 267.686 54.3503C228.409 77.0004 196.55 132.137 196.55 177.487C196.55 200.386 204.704 216.446 217.826 223.773C230.659 230.922 248.252 229.747 267.666 218.536C306.933 195.866 338.773 140.729 338.773 95.3794C338.793 70.2204 328.966 53.3647 313.564 47.2417ZM276.726 136.17C277.198 134.8 277.486 133.374 277.582 131.928C278.717 131.381 279.972 130.724 281.216 130.056C291.066 124.584 300.53 118.443 309.542 111.678C312.827 109.228 316.083 106.699 319.239 104.161L323.152 100.995C323.152 102.14 323.152 103.245 323.152 104.38C323.152 119.682 318.472 136.488 310.736 151.99C309.581 151.134 308.357 150.297 307.092 149.481C305.201 148.266 303.209 147.101 301.178 145.986C299.147 144.871 297.086 143.856 294.996 142.94C289.954 140.682 284.697 138.941 279.305 137.743C278.259 137.504 277.224 137.324 276.318 137.205C276.487 136.847 276.607 136.488 276.726 136.14V136.17ZM314.261 74.7404C310.278 79.1012 306.057 83.8602 301.845 88.8681C293.357 98.9023 285.382 109.36 277.951 120.2C276.955 121.693 275.96 123.137 275.103 124.491C274.148 123.781 272.961 123.458 271.778 123.585C272.077 122.53 272.375 121.425 272.684 120.27C272.794 119.842 272.903 119.403 273.023 118.965C276.095 107.171 278.452 95.202 280.081 83.1234C280.918 77.3091 281.535 71.5445 282.003 66.1981C289.828 64.0874 296.937 64.3064 303.01 66.5963C307.407 68.2678 311.287 71.0661 314.261 74.7105V74.7404ZM267.706 147.948C268.412 147.539 269.079 147.066 269.697 146.534H269.747C269.989 147.713 270.302 148.877 270.683 150.018C273.271 158.508 276.79 166.685 281.177 174.401C283.14 177.955 285.307 181.392 287.668 184.696C281.798 190.874 275.096 196.205 267.756 200.536C260.787 204.578 253.987 206.987 247.844 207.734C248.212 206.798 248.58 205.852 248.939 204.906C250.801 200.078 252.603 195.05 254.345 189.972C258.465 177.995 261.952 165.808 264.789 153.463C265.147 151.87 265.406 150.347 265.715 148.903C266.141 148.771 266.554 148.601 266.949 148.396C267.139 148.236 267.417 148.077 267.706 147.918V147.948ZM212.161 168.497C212.161 167.352 212.221 166.177 212.221 165.042C216.532 163.569 221.181 161.886 225.88 159.975C235.655 155.949 245.105 151.176 254.146 145.698L255.032 145.14C256.028 144.523 256.953 143.925 257.84 143.328C257.862 144.701 258.296 146.036 259.084 147.161C258.088 148.396 257.093 149.77 256.018 151.213C249.417 160.243 241.412 172.36 234.194 184.696C230.769 190.45 227.543 196.215 224.576 201.76C223.419 200.774 222.343 199.695 221.36 198.535C215.556 191.705 212.161 181.5 212.161 168.467V168.497ZM253.429 82.7551C253.837 87.5539 254.425 92.6016 255.291 97.4503C256.75 106.876 259.117 116.138 262.36 125.108C262.768 126.253 263.236 127.309 263.604 128.284C262.299 129.72 261.182 131.316 260.279 133.033C259.393 132.705 258.467 132.346 257.471 132.038C249.693 129.717 241.633 128.474 233.517 128.344C229.378 128.174 225.232 128.244 221.102 128.553C221.4 127.846 221.709 127.129 222.017 126.432C228.716 111.311 238.2 97.5849 249.974 85.9709C251.109 84.8259 252.304 83.7606 253.429 82.7252V82.7551Z" fill="#042E66"/>
<path opacity="0.15" d="M313.564 47.2417C301.188 42.2636 285.169 44.2548 267.686 54.3503C228.409 77.0004 196.55 132.137 196.55 177.487C196.55 200.386 204.704 216.446 217.826 223.773C230.659 230.922 248.252 229.747 267.666 218.536C306.933 195.866 338.773 140.729 338.773 95.3794C338.793 70.2204 328.966 53.3647 313.564 47.2417ZM276.726 136.17C277.198 134.8 277.486 133.374 277.582 131.928C278.717 131.381 279.972 130.724 281.216 130.056C291.066 124.584 300.53 118.443 309.542 111.678C312.827 109.228 316.083 106.699 319.239 104.161L323.152 100.995C323.152 102.14 323.152 103.245 323.152 104.38C323.152 119.682 318.472 136.488 310.736 151.99C309.581 151.134 308.357 150.297 307.092 149.481C305.201 148.266 303.209 147.101 301.178 145.986C299.147 144.871 297.086 143.856 294.996 142.94C289.954 140.682 284.697 138.941 279.305 137.743C278.259 137.504 277.224 137.324 276.318 137.205C276.487 136.847 276.607 136.488 276.726 136.14V136.17ZM314.261 74.7404C310.278 79.1012 306.057 83.8602 301.845 88.8681C293.357 98.9023 285.382 109.36 277.951 120.2C276.955 121.693 275.96 123.137 275.103 124.491C274.148 123.781 272.961 123.458 271.778 123.585C272.077 122.53 272.375 121.425 272.684 120.27C272.794 119.842 272.903 119.403 273.023 118.965C276.095 107.171 278.452 95.202 280.081 83.1234C280.918 77.3091 281.535 71.5445 282.003 66.1981C289.828 64.0874 296.937 64.3064 303.01 66.5963C307.407 68.2678 311.287 71.0661 314.261 74.7105V74.7404ZM267.706 147.948C268.412 147.539 269.079 147.066 269.697 146.534H269.747C269.989 147.713 270.302 148.877 270.683 150.018C273.271 158.508 276.79 166.685 281.177 174.401C283.14 177.955 285.307 181.392 287.668 184.696C281.798 190.874 275.096 196.205 267.756 200.536C260.787 204.578 253.987 206.987 247.844 207.734C248.212 206.798 248.58 205.852 248.939 204.906C250.801 200.078 252.603 195.05 254.345 189.972C258.465 177.995 261.952 165.808 264.789 153.463C265.147 151.87 265.406 150.347 265.715 148.903C266.141 148.771 266.554 148.601 266.949 148.396C267.139 148.236 267.417 148.077 267.706 147.918V147.948ZM212.161 168.497C212.161 167.352 212.221 166.177 212.221 165.042C216.532 163.569 221.181 161.886 225.88 159.975C235.655 155.949 245.105 151.176 254.146 145.698L255.032 145.14C256.028 144.523 256.953 143.925 257.84 143.328C257.862 144.701 258.296 146.036 259.084 147.161C258.088 148.396 257.093 149.77 256.018 151.213C249.417 160.243 241.412 172.36 234.194 184.696C230.769 190.45 227.543 196.215 224.576 201.76C223.419 200.774 222.343 199.695 221.36 198.535C215.556 191.705 212.161 181.5 212.161 168.467V168.497ZM253.429 82.7551C253.837 87.5539 254.425 92.6016 255.291 97.4503C256.75 106.876 259.117 116.138 262.36 125.108C262.768 126.253 263.236 127.309 263.604 128.284C262.299 129.72 261.182 131.316 260.279 133.033C259.393 132.705 258.467 132.346 257.471 132.038C249.693 129.717 241.633 128.474 233.517 128.344C229.378 128.174 225.232 128.244 221.102 128.553C221.4 127.846 221.709 127.129 222.017 126.432C228.716 111.311 238.2 97.5849 249.974 85.9709C251.109 84.8259 252.304 83.7606 253.429 82.7252V82.7551Z" fill="black"/>
<path d="M259.084 147.131C258.088 148.366 257.093 149.74 256.018 151.183C249.417 160.213 241.412 172.33 234.194 184.666C230.769 190.42 227.543 196.185 224.576 201.73C223.419 200.744 222.343 199.665 221.36 198.505C224.118 193.367 227.095 188.081 230.251 182.784C237.469 170.458 245.474 158.342 252.075 149.302C253.07 147.868 254.146 146.484 255.131 145.259L255.032 145.11C256.027 144.493 256.953 143.895 257.839 143.298C257.862 144.671 258.296 146.006 259.084 147.131Z" fill="#042E66"/>
<path opacity="0.4" d="M259.084 147.131C258.088 148.366 257.093 149.74 256.018 151.183C249.417 160.213 241.412 172.33 234.194 184.666C230.769 190.42 227.543 196.185 224.576 201.73C223.419 200.744 222.343 199.665 221.36 198.505C224.118 193.367 227.095 188.081 230.251 182.784C237.469 170.458 245.474 158.342 252.075 149.302C253.07 147.868 254.146 146.484 255.131 145.259L255.032 145.11C256.027 144.493 256.953 143.895 257.839 143.298C257.862 144.671 258.296 146.006 259.084 147.131Z" fill="black"/>
<path d="M287.657 184.696C281.787 190.874 275.086 196.205 267.745 200.536C260.776 204.578 253.976 206.987 247.833 207.734C248.201 206.798 248.57 205.852 248.928 204.906C254.172 203.523 259.198 201.419 263.862 198.654C271.201 194.322 277.903 188.991 283.774 182.814C281.39 179.511 279.193 176.078 277.194 172.529C272.869 164.878 269.397 156.775 266.839 148.366C267.118 148.236 267.397 148.077 267.685 147.918C268.392 147.509 269.058 147.036 269.677 146.504H269.726C269.969 147.683 270.281 148.847 270.662 149.989C273.254 158.489 276.781 166.677 281.176 174.401C283.136 177.955 285.3 181.392 287.657 184.696Z" fill="#042E66"/>
<path opacity="0.3" d="M287.657 184.696C281.787 190.874 275.086 196.205 267.745 200.536C260.776 204.578 253.976 206.987 247.833 207.734C248.201 206.798 248.57 205.852 248.928 204.906C254.172 203.523 259.198 201.419 263.862 198.654C271.201 194.322 277.903 188.991 283.774 182.814" fill="black"/>
<path opacity="0.4" d="M281.176 174.401C276.803 166.664 273.3 158.467 270.732 149.959C270.351 148.817 270.039 147.653 269.796 146.474H269.747C269.128 147.006 268.462 147.479 267.755 147.888C267.467 148.047 267.188 148.206 266.909 148.336C269.442 156.752 272.891 164.865 277.194 172.529C279.164 176.076 281.332 179.509 283.685 182.814L287.668 184.696C285.307 181.392 283.14 177.955 281.176 174.401Z" fill="black"/>
<path d="M295.046 142.91C290.004 140.652 284.747 138.911 279.355 137.713C278.31 137.474 277.274 137.295 276.368 137.175C276.518 136.827 276.637 136.488 276.756 136.179C283.093 137.708 289.23 139.966 295.046 142.91Z" fill="#042E66"/>
<path d="M323.202 104.35C323.202 119.652 318.522 136.458 310.787 151.96C309.632 151.104 308.407 150.267 307.143 149.451C314.43 134.686 318.921 118.766 319.239 104.131L323.152 100.965C323.152 102.11 323.202 103.215 323.202 104.35Z" fill="#042E66"/>
<path opacity="0.4" d="M295.046 142.91C290.004 140.652 284.747 138.911 279.355 137.713C278.31 137.474 277.274 137.295 276.368 137.175C276.518 136.827 276.637 136.488 276.756 136.179C283.093 137.708 289.23 139.966 295.046 142.91Z" fill="black"/>
<path opacity="0.3" d="M323.202 104.35C323.202 119.652 318.522 136.458 310.787 151.96C309.632 151.104 308.407 150.267 307.143 149.451C314.43 134.686 318.921 118.766 319.239 104.131L323.152 100.965C323.152 102.11 323.202 103.215 323.202 104.35Z" fill="black"/>
<path d="M314.261 74.7105C310.279 79.0713 306.057 83.8303 301.846 88.8382C293.357 98.8724 285.382 109.33 277.951 120.17C276.956 121.663 275.96 123.107 275.104 124.461C274.149 123.752 272.961 123.428 271.778 123.555C272.077 122.5 272.376 121.395 272.684 120.24L273.999 118.249C281.433 107.414 289.408 96.9601 297.893 86.9267C302.105 81.9486 306.306 77.1398 310.318 72.799C308.266 70.3089 305.788 68.2021 303.001 66.5764C307.403 68.2519 311.287 71.0574 314.261 74.7105Z" fill="#042E66"/>
<path opacity="0.4" d="M314.261 74.7105C310.279 79.0713 306.057 83.8303 301.846 88.8382C293.357 98.8724 285.382 109.33 277.951 120.17C276.956 121.663 275.96 123.107 275.104 124.461C274.149 123.752 272.961 123.428 271.778 123.555C272.077 122.5 272.376 121.395 272.684 120.24L273.999 118.249C281.433 107.414 289.408 96.9601 297.893 86.9267C302.105 81.9486 306.306 77.1398 310.318 72.799C308.266 70.3089 305.788 68.2021 303.001 66.5764C307.403 68.2519 311.287 71.0574 314.261 74.7105Z" fill="black"/>
<path d="M263.604 128.254C262.299 129.69 261.182 131.286 260.279 133.003C259.393 132.675 258.467 132.317 257.471 132.008C249.693 129.687 241.633 128.444 233.517 128.314C229.378 128.144 225.232 128.214 221.102 128.523C221.4 127.816 221.709 127.1 222.018 126.403C224.526 126.313 227.055 126.323 229.564 126.403C237.68 126.538 245.739 127.781 253.519 130.096C254.514 130.425 255.45 130.783 256.336 131.092C257.236 129.373 258.354 127.776 259.662 126.343C259.293 125.347 258.825 124.352 258.407 123.167C255.167 114.193 252.8 104.927 251.338 95.4989C250.801 92.3428 250.343 89.0971 249.974 85.8813C251.109 84.7861 252.254 83.7208 253.429 82.6854C253.837 87.4842 254.425 92.532 255.291 97.3806C256.75 106.806 259.117 116.069 262.36 125.039C262.768 126.223 263.256 127.279 263.604 128.254Z" fill="#042E66"/>
<path opacity="0.4" d="M259.662 126.383C258.354 127.816 257.236 129.412 256.336 131.132C255.45 130.793 254.514 130.435 253.519 130.136C245.739 127.821 237.68 126.578 229.564 126.442C227.055 126.333 224.526 126.323 222.018 126.442C221.709 127.139 221.4 127.856 221.102 128.563C225.232 128.254 229.378 128.184 233.517 128.354C241.633 128.484 249.693 129.727 257.471 132.048C258.467 132.376 259.393 132.735 260.279 133.043C261.182 131.326 262.299 129.73 263.604 128.294L259.662 126.383Z" fill="black"/>
<path opacity="0.3" d="M259.661 126.383C259.293 125.387 258.825 124.391 258.406 123.207C255.167 114.233 252.799 104.967 251.338 95.5387C250.8 92.3826 250.342 89.1369 249.974 85.9211C251.109 84.8259 252.254 83.7606 253.428 82.7252C253.837 87.524 254.424 92.5718 255.29 97.4204C256.749 106.846 259.117 116.108 262.359 125.078C262.767 126.223 263.235 127.279 263.604 128.254" fill="black"/>
<path d="M301.846 74.3422L331.864 91.6558C330.903 91.1132 329.905 90.6408 328.877 90.2421C320.145 86.7674 308.855 88.1413 296.529 95.2201C268.851 111.2 246.42 150.078 246.42 182.037C246.42 197.688 251.817 208.779 260.558 214.156L230.899 197.001C221.879 191.744 216.283 180.554 216.283 164.624C216.283 132.665 238.724 93.7964 266.402 77.8168C278.728 70.6982 290.018 69.3243 298.74 72.8388C299.796 73.2708 300.821 73.7765 301.806 74.3521L301.846 74.3422Z" fill="#455A64"/>
<path d="M233.586 192.441C225.87 187.951 221.639 178.075 221.639 164.654C221.639 134.427 242.935 97.5399 269.109 82.4265C276.079 78.4441 282.889 76.3035 288.852 76.3035C291.574 76.2798 294.277 76.7696 296.817 77.7472C297.633 78.084 298.425 78.4765 299.187 78.922L308.755 84.4476C303.549 85.8309 298.558 87.9213 293.92 90.6602C264.828 107.466 241.153 148.465 241.153 182.067C241.092 187.443 241.762 192.802 243.144 197.997L233.586 192.441Z" fill="#37474F"/>
<path d="M328.907 90.2421C320.185 86.7574 308.895 88.1413 296.569 95.2201C268.891 111.21 246.45 150.068 246.45 182.037C246.45 198.196 252.195 209.486 261.454 214.653C270.494 219.691 282.89 218.865 296.569 210.96C324.247 195.03 346.688 156.122 346.688 124.162C346.688 106.461 339.779 94.5829 328.907 90.2421Z" fill="#37474F"/>
<path d="M216.462 160.821L246.609 178.224C246.728 175.934 246.967 173.614 247.296 171.255L217.159 153.852C216.8 156.214 216.568 158.538 216.462 160.821Z" fill="#455A64"/>
<path d="M256.774 84.5073L286.912 101.911C288.743 100.447 290.615 99.0731 292.507 97.7987L262.37 80.4054C260.478 81.6699 258.606 83.0836 256.774 84.5073Z" fill="#455A64"/>
<path d="M242.507 98.6848C241.143 100.318 239.829 102.01 238.524 103.733L268.671 121.136C269.946 119.403 271.27 117.721 272.654 116.078L242.507 98.6848Z" fill="#455A64"/>
<path d="M226.319 124.202C225.403 126.134 224.546 128.085 223.75 130.056L253.887 147.46C254.684 145.469 255.54 143.517 256.456 141.606L226.319 124.202Z" fill="#455A64"/>
<path d="M331.863 91.6658C330.906 91.1159 329.907 90.6399 328.877 90.2421C320.593 86.9466 310.05 88.0119 298.471 94.2245C302.871 91.8052 309.691 88.1413 317.387 83.3724L331.863 91.6658Z" fill="#263238"/>
<path d="M296.569 95.25C310.975 87.1557 368.919 58.4622 368.919 17.4033L338.792 0C338.792 41.0589 280.848 69.7524 266.441 77.8467L271.798 80.9331L276.348 77.9463L296.628 89.6646L291.362 92.2432L296.569 95.25Z" fill="#455A64"/>
<path d="M276.348 77.9463C296.598 66.7257 337.309 42.3532 342.984 8.04453L363.951 20.1611C361.562 54.1612 315.395 79.3999 297.733 89.0573L296.628 89.6646L276.348 77.9463Z" fill="#37474F"/>
<path d="M313.872 46.2461C312.352 47.6266 310.802 48.9774 309.223 50.2982L339.429 67.6517C341.003 66.3375 342.556 64.9834 344.069 63.5896L313.872 46.2461Z" fill="#455A64"/>
<path d="M289.988 64.2268C288.066 65.4514 286.175 66.6162 284.353 67.7214L314.569 85.0748C316.388 83.973 318.266 82.8082 320.204 81.5802L289.988 64.2268Z" fill="#455A64"/>
<path d="M331.813 24.5816C330.858 26.2675 329.822 27.9268 328.707 29.5596L358.884 46.8932C359.989 45.2704 361.025 43.6276 361.98 41.9152L331.813 24.5816Z" fill="#455A64"/>
<path d="M276.348 77.9463C271.628 80.5349 267.517 83.3724 267.517 83.3724L287.429 94.8716C287.429 94.8716 291.6 92.4224 296.628 89.6646L276.348 77.9463Z" fill="#37474F"/>
<path d="M341.212 63.1714C328.389 56.023 310.796 57.1978 291.382 68.3984C252.115 91.0784 220.275 146.225 220.275 191.565C220.275 216.724 230.072 233.57 245.504 239.733C257.88 244.711 273.899 242.72 291.382 232.624C330.659 209.944 362.498 154.807 362.498 109.457C362.498 86.5484 354.344 70.5091 341.212 63.1714ZM341.919 90.6702C337.937 95.0309 333.705 99.79 329.494 104.798C321.009 114.835 313.034 125.292 305.599 136.13C304.604 137.623 303.608 139.067 302.752 140.421C301.797 139.711 300.609 139.388 299.426 139.515C299.725 138.459 300.034 137.354 300.332 136.199C299.795 137.006 299.287 137.782 298.799 138.539C297.843 137.832 296.656 137.509 295.474 137.633C295.892 136.199 296.31 134.646 296.728 133.013C299.797 121.218 302.154 109.249 303.787 97.1715C304.623 91.3372 305.241 85.5826 305.709 80.2461C315.306 77.6576 323.869 78.5636 330.669 82.5161C335.066 84.2108 338.942 87.0292 341.909 90.6901L341.919 90.6702ZM244.797 142.581C252.185 125.188 263.714 108.731 277.115 96.7832C277.264 98.4558 277.433 100.148 277.622 101.851C278.757 100.756 279.909 99.6904 281.077 98.655C281.485 103.454 282.073 108.502 282.939 113.35C284.396 122.777 286.767 132.04 290.018 141.008C290.426 142.153 290.884 143.208 291.262 144.184C289.954 145.62 288.834 147.216 287.927 148.933C287.051 148.605 286.115 148.246 285.119 147.938C277.341 145.616 269.281 144.374 261.165 144.244C257.026 144.074 252.881 144.144 248.75 144.453C249.049 143.746 249.357 143.029 249.676 142.332C248.033 142.402 246.41 142.492 244.797 142.601V142.581ZM252.234 217.69C251.071 216.706 249.992 215.627 249.009 214.464L248.282 215.818C240.536 209.237 235.867 197.848 235.867 182.545C235.867 181.41 235.926 180.235 235.926 179.09C240.227 177.627 244.887 175.944 249.586 174.023C259.362 170 268.812 165.226 277.851 159.746C279.146 158.929 280.39 158.153 281.545 157.376C281.571 158.689 281.964 159.969 282.68 161.07C283.676 160.452 284.602 159.855 285.488 159.258C285.511 160.631 285.944 161.966 286.732 163.091C285.737 164.325 284.741 165.699 283.676 167.143C277.065 176.173 269.06 188.29 261.852 200.625C258.417 206.4 255.201 212.164 252.234 217.71V217.69ZM295.364 216.495C288.345 220.537 281.595 222.947 275.402 223.694C275.771 222.758 276.149 221.812 276.507 220.866C274.848 221.294 273.162 221.61 271.46 221.812C273.69 216.147 275.87 210.143 277.951 204.03C282.076 192.051 285.562 179.861 288.395 167.511C288.763 165.928 289.022 164.395 289.331 162.961C290.058 162.704 290.755 162.37 291.412 161.966C292.117 161.557 292.784 161.083 293.403 160.552H293.453C293.703 161.727 294.019 162.887 294.399 164.027L294.488 164.315C294.757 164.186 295.036 164.027 295.334 163.867C296.041 163.459 296.707 162.986 297.326 162.454H297.385C297.623 163.634 297.936 164.798 298.321 165.938C300.88 174.45 304.384 182.648 308.765 190.38C310.729 193.932 312.893 197.369 315.247 200.675C309.383 206.843 302.691 212.167 295.364 216.495ZM334.8 165.411C334.701 165.62 334.591 165.829 334.482 166.038C331.437 163.829 328.243 161.834 324.924 160.064C324.197 159.656 323.45 159.268 322.704 158.889C317.661 156.627 312.4 154.886 307.003 153.692C305.958 153.453 304.922 153.274 304.016 153.155C304.162 152.829 304.291 152.497 304.404 152.159L303.08 151.781C302.095 151.551 301.098 151.375 300.093 151.253C300.786 149.568 301.206 147.783 301.338 145.966C302.473 145.429 303.727 144.762 304.972 144.105C314.819 138.629 324.28 132.485 333.287 125.716C337.966 122.241 342.586 118.547 346.897 115.033C346.897 116.178 346.957 117.293 346.957 118.428C346.957 118.975 346.957 119.523 346.957 120.08C348.291 119.015 349.595 117.95 350.879 116.914C350.879 118.059 350.879 119.165 350.879 120.3C350.879 135.602 346.21 152.408 338.464 167.91C337.289 167.073 336.068 166.247 334.8 165.431V165.411Z" fill="#042E66"/>
<path opacity="0.4" d="M341.212 63.1714C328.389 56.023 310.796 57.1978 291.382 68.3984C252.115 91.0784 220.275 146.225 220.275 191.565C220.275 216.724 230.072 233.57 245.504 239.733C257.88 244.711 273.899 242.72 291.382 232.624C330.659 209.944 362.498 154.807 362.498 109.457C362.498 86.5484 354.344 70.5091 341.212 63.1714ZM341.919 90.6702C337.937 95.0309 333.705 99.79 329.494 104.798C321.009 114.835 313.034 125.292 305.599 136.13C304.604 137.623 303.608 139.067 302.752 140.421C301.797 139.711 300.609 139.388 299.426 139.515C299.725 138.459 300.034 137.354 300.332 136.199C299.795 137.006 299.287 137.782 298.799 138.539C297.843 137.832 296.656 137.509 295.474 137.633C295.892 136.199 296.31 134.646 296.728 133.013C299.797 121.218 302.154 109.249 303.787 97.1715C304.623 91.3372 305.241 85.5826 305.709 80.2461C315.306 77.6576 323.869 78.5636 330.669 82.5161C335.066 84.2108 338.942 87.0292 341.909 90.6901L341.919 90.6702ZM244.797 142.581C252.185 125.188 263.714 108.731 277.115 96.7832C277.264 98.4558 277.433 100.148 277.622 101.851C278.757 100.756 279.909 99.6904 281.077 98.655C281.485 103.454 282.073 108.502 282.939 113.35C284.396 122.777 286.767 132.04 290.018 141.008C290.426 142.153 290.884 143.208 291.262 144.184C289.954 145.62 288.834 147.216 287.927 148.933C287.051 148.605 286.115 148.246 285.119 147.938C277.341 145.616 269.281 144.374 261.165 144.244C257.026 144.074 252.881 144.144 248.75 144.453C249.049 143.746 249.357 143.029 249.676 142.332C248.033 142.402 246.41 142.492 244.797 142.601V142.581ZM252.234 217.69C251.071 216.706 249.992 215.627 249.009 214.464L248.282 215.818C240.536 209.237 235.867 197.848 235.867 182.545C235.867 181.41 235.926 180.235 235.926 179.09C240.227 177.627 244.887 175.944 249.586 174.023C259.362 170 268.812 165.226 277.851 159.746C279.146 158.929 280.39 158.153 281.545 157.376C281.571 158.689 281.964 159.969 282.68 161.07C283.676 160.452 284.602 159.855 285.488 159.258C285.511 160.631 285.944 161.966 286.732 163.091C285.737 164.325 284.741 165.699 283.676 167.143C277.065 176.173 269.06 188.29 261.852 200.625C258.417 206.4 255.201 212.164 252.234 217.71V217.69ZM295.364 216.495C288.345 220.537 281.595 222.947 275.402 223.694C275.771 222.758 276.149 221.812 276.507 220.866C274.848 221.294 273.162 221.61 271.46 221.812C273.69 216.147 275.87 210.143 277.951 204.03C282.076 192.051 285.562 179.861 288.395 167.511C288.763 165.928 289.022 164.395 289.331 162.961C290.058 162.704 290.755 162.37 291.412 161.966C292.117 161.557 292.784 161.083 293.403 160.552H293.453C293.703 161.727 294.019 162.887 294.399 164.027L294.488 164.315C294.757 164.186 295.036 164.027 295.334 163.867C296.041 163.459 296.707 162.986 297.326 162.454H297.385C297.623 163.634 297.936 164.798 298.321 165.938C300.88 174.45 304.384 182.648 308.765 190.38C310.729 193.932 312.893 197.369 315.247 200.675C309.383 206.843 302.691 212.167 295.364 216.495ZM334.8 165.411C334.701 165.62 334.591 165.829 334.482 166.038C331.437 163.829 328.243 161.834 324.924 160.064C324.197 159.656 323.45 159.268 322.704 158.889C317.661 156.627 312.4 154.886 307.003 153.692C305.958 153.453 304.922 153.274 304.016 153.155C304.162 152.829 304.291 152.497 304.404 152.159L303.08 151.781C302.095 151.551 301.098 151.375 300.093 151.253C300.786 149.568 301.206 147.783 301.338 145.966C302.473 145.429 303.727 144.762 304.972 144.105C314.819 138.629 324.28 132.485 333.287 125.716C337.966 122.241 342.586 118.547 346.897 115.033C346.897 116.178 346.957 117.293 346.957 118.428C346.957 118.975 346.957 119.523 346.957 120.08C348.291 119.015 349.595 117.95 350.879 116.914C350.879 118.059 350.879 119.165 350.879 120.3C350.879 135.602 346.21 152.408 338.464 167.91C337.289 167.073 336.068 166.247 334.8 165.431V165.411Z" fill="white"/>
<path d="M341.212 63.1714C328.836 58.1934 312.817 60.1846 295.334 70.2801C256.057 92.9601 224.218 148.097 224.218 193.447C224.218 216.346 232.372 232.405 245.504 239.733C258.327 246.881 275.92 245.706 295.334 234.496C334.601 211.826 366.441 156.689 366.441 111.339C366.441 86.1999 356.644 69.3442 341.212 63.1714ZM304.374 152.099C304.846 150.73 305.134 149.303 305.231 147.858C306.375 147.31 307.63 146.653 308.874 145.986C318.721 140.513 328.182 134.372 337.19 127.607C340.475 125.158 343.731 122.629 346.887 120.09C348.221 119.025 349.525 117.96 350.81 116.924C350.81 118.069 350.81 119.174 350.81 120.309C350.81 135.612 346.14 152.418 338.394 167.92C337.239 167.063 336.028 166.227 334.76 165.411C332.859 164.196 330.867 163.031 328.836 161.916C326.805 160.801 324.754 159.785 322.664 158.869C317.621 156.607 312.36 154.866 306.963 153.672C305.917 153.433 304.882 153.254 303.976 153.135C304.126 152.803 304.258 152.464 304.374 152.119V152.099ZM341.909 90.6901C337.926 95.0508 333.695 99.8099 329.484 104.818C320.998 114.854 313.023 125.312 305.589 136.15C304.593 137.643 303.598 139.087 302.742 140.441C301.786 139.731 300.599 139.408 299.416 139.535C299.715 138.479 300.023 137.374 300.322 136.219C300.442 135.791 300.541 135.353 300.661 134.915C303.738 123.122 306.095 111.152 307.72 99.0731C308.556 93.2587 309.183 87.4942 309.651 82.1477C317.467 80.037 324.585 80.2561 330.658 82.546C335.056 84.2308 338.935 87.0388 341.909 90.6901ZM295.354 163.897C296.06 163.489 296.727 163.016 297.345 162.483H297.405C297.643 163.664 297.955 164.828 298.341 165.968C300.9 174.479 304.403 182.678 308.785 190.41C310.749 193.962 312.913 197.399 315.266 200.705C309.394 206.882 302.693 212.213 295.354 216.545C288.335 220.587 281.585 222.997 275.392 223.743C275.76 222.807 276.139 221.862 276.497 220.916C278.349 216.087 280.151 211.059 281.893 205.982C286.014 194.004 289.5 181.817 292.337 169.473C292.696 167.88 292.955 166.356 293.273 164.913C293.699 164.78 294.112 164.611 294.508 164.405C294.787 164.216 295.115 164.057 295.364 163.897H295.354ZM239.799 184.447C239.799 183.302 239.859 182.127 239.859 180.992C244.17 179.518 248.819 177.836 253.529 175.924C263.3 171.899 272.747 167.126 281.784 161.647L282.67 161.09C283.666 160.472 284.592 159.875 285.478 159.278C285.501 160.651 285.934 161.986 286.722 163.111C285.727 164.345 284.731 165.719 283.666 167.163C277.055 176.193 269.05 188.31 261.842 200.645C258.407 206.4 255.191 212.164 252.224 217.71C251.061 216.726 249.982 215.647 248.998 214.484C243.204 207.684 239.809 197.479 239.809 184.447H239.799ZM281.067 98.7047C281.475 103.504 282.063 108.551 282.929 113.4C284.386 122.827 286.757 132.09 290.008 141.058C290.416 142.203 290.874 143.258 291.252 144.234C289.944 145.67 288.824 147.265 287.917 148.983C287.041 148.654 286.105 148.296 285.109 147.987C277.331 145.666 269.271 144.423 261.155 144.294C257.016 144.124 252.871 144.193 248.74 144.503C249.038 143.796 249.347 143.079 249.666 142.382C256.36 127.261 265.841 113.535 277.612 101.921C278.754 100.812 279.909 99.7402 281.077 98.7047H281.067Z" fill="#042E66"/>
<path d="M286.732 163.111C285.737 164.345 284.741 165.719 283.676 167.163C277.065 176.193 269.06 188.31 261.852 200.645C258.417 206.4 255.201 212.164 252.235 217.71C251.072 216.726 249.993 215.647 249.009 214.484C251.777 209.347 254.753 204.06 257.9 198.764C265.118 186.438 273.122 174.321 279.723 165.281C280.719 163.847 281.794 162.464 282.79 161.239L282.68 161.09C283.676 160.472 284.602 159.875 285.488 159.278C285.511 160.651 285.944 161.986 286.732 163.111Z" fill="#042E66"/>
<path opacity="0.3" d="M286.732 163.111C285.737 164.345 284.741 165.719 283.676 167.163C277.065 176.193 269.06 188.31 261.852 200.645C258.417 206.4 255.201 212.164 252.235 217.71C251.072 216.726 249.993 215.647 249.009 214.484C251.777 209.347 254.753 204.06 257.9 198.764C265.118 186.438 273.122 174.321 279.723 165.281C280.719 163.847 281.794 162.464 282.79 161.239L282.68 161.09C283.676 160.472 284.602 159.875 285.488 159.278C285.511 160.651 285.944 161.986 286.732 163.111Z" fill="black"/>
<path d="M315.306 200.675C309.434 206.852 302.733 212.183 295.394 216.515C288.375 220.557 281.624 222.967 275.432 223.713C275.8 222.778 276.178 221.832 276.537 220.886C281.78 219.501 286.805 217.397 291.471 214.634C298.808 210.298 305.509 204.967 311.383 198.793C309.023 195.491 306.852 192.058 304.882 188.509C300.56 180.857 297.091 172.754 294.537 164.345C294.806 164.216 295.085 164.057 295.384 163.897C296.09 163.489 296.757 163.016 297.375 162.483H297.435C297.672 163.664 297.985 164.828 298.37 165.968C300.93 174.479 304.433 182.678 308.814 190.41C310.782 193.952 312.95 197.379 315.306 200.675Z" fill="#042E66"/>
<path opacity="0.2" d="M315.306 200.675C309.434 206.852 302.733 212.183 295.394 216.515C288.375 220.557 281.624 222.967 275.432 223.713C275.8 222.778 276.178 221.832 276.537 220.886C281.78 219.501 286.805 217.397 291.471 214.634C298.808 210.298 305.509 204.967 311.383 198.793" fill="black"/>
<path opacity="0.3" d="M308.825 190.38C304.443 182.648 300.94 174.45 298.381 165.938C297.995 164.798 297.683 163.634 297.445 162.454H297.385C296.767 162.986 296.1 163.459 295.394 163.867C295.095 164.027 294.817 164.186 294.548 164.315C297.102 172.724 300.571 180.827 304.892 188.479C306.862 192.028 309.033 195.461 311.394 198.764L315.376 200.645C312.999 197.351 310.812 193.924 308.825 190.38Z" fill="black"/>
<path d="M322.703 158.889C317.66 156.627 312.399 154.886 307.002 153.692C305.957 153.453 304.922 153.274 304.016 153.155C304.161 152.829 304.291 152.497 304.404 152.159C310.743 153.689 316.884 155.947 322.703 158.889Z" fill="#042E66"/>
<path d="M350.87 120.329C350.87 135.632 346.2 152.438 338.454 167.939C337.299 167.083 336.088 166.247 334.82 165.431C342.098 150.666 346.598 134.746 346.907 120.11C348.241 119.045 349.545 117.98 350.83 116.944C350.81 118.089 350.87 119.194 350.87 120.329Z" fill="#042E66"/>
<path opacity="0.3" d="M322.703 158.889C317.66 156.627 312.399 154.886 307.002 153.692C305.957 153.453 304.922 153.274 304.016 153.155C304.161 152.829 304.291 152.497 304.404 152.159C310.743 153.689 316.884 155.947 322.703 158.889Z" fill="black"/>
<path opacity="0.2" d="M350.87 120.329C350.87 135.632 346.2 152.438 338.454 167.939C337.299 167.083 336.088 166.247 334.82 165.431C342.098 150.666 346.598 134.746 346.907 120.11C348.241 119.045 349.545 117.98 350.83 116.944C350.81 118.089 350.87 119.194 350.87 120.329Z" fill="black"/>
<path d="M341.909 90.6901C337.926 95.0509 333.695 99.8099 329.483 104.818C320.998 114.854 313.023 125.312 305.589 136.15C304.593 137.643 303.598 139.087 302.741 140.441C301.786 139.731 300.599 139.408 299.416 139.535C299.715 138.479 300.023 137.374 300.322 136.219L301.646 134.228C309.078 123.391 317.053 112.937 325.541 102.906C329.752 97.9282 333.954 93.1194 337.956 88.7785C335.905 86.2909 333.431 84.1845 330.648 82.556C335.048 84.2364 338.931 87.041 341.909 90.6901Z" fill="#042E66"/>
<path opacity="0.3" d="M341.909 90.6901C337.926 95.0509 333.695 99.8099 329.483 104.818C320.998 114.854 313.023 125.312 305.589 136.15C304.593 137.643 303.598 139.087 302.741 140.441C301.786 139.731 300.599 139.408 299.416 139.535C299.715 138.479 300.023 137.374 300.322 136.219L301.646 134.228C309.078 123.391 317.053 112.937 325.541 102.906C329.752 97.9282 333.954 93.1194 337.956 88.7785C335.905 86.2909 333.431 84.1845 330.648 82.556C335.048 84.2364 338.931 87.041 341.909 90.6901Z" fill="black"/>
<path d="M291.262 144.234C289.954 145.67 288.833 147.265 287.926 148.983C287.05 148.654 286.114 148.296 285.119 147.987C277.34 145.666 269.28 144.423 261.164 144.294C257.025 144.124 252.88 144.193 248.749 144.503C249.048 143.796 249.356 143.079 249.675 142.382C252.184 142.293 254.713 142.302 257.222 142.382C265.338 142.522 273.397 143.768 281.176 146.086C282.172 146.414 283.098 146.773 283.984 147.081C284.886 145.364 286.004 143.768 287.309 142.332C286.941 141.337 286.473 140.341 286.055 139.156C282.818 130.182 280.455 120.916 278.996 111.488C278.448 108.332 278 105.087 277.622 101.871C278.757 100.776 279.908 99.7103 281.076 98.6749C281.485 103.474 282.072 108.521 282.938 113.37C284.396 122.797 286.766 132.06 290.017 141.028C290.425 142.203 290.883 143.258 291.262 144.234Z" fill="#042E66"/>
<path opacity="0.3" d="M287.309 142.362C286.004 143.798 284.886 145.394 283.984 147.111C283.098 146.773 282.162 146.414 281.176 146.116C273.396 143.801 265.337 142.558 257.222 142.422C254.713 142.312 252.184 142.302 249.675 142.422C249.356 143.119 249.048 143.836 248.749 144.543C252.88 144.233 257.025 144.163 261.164 144.334C269.291 144.44 277.365 145.663 285.158 147.967C286.154 148.296 287.09 148.654 287.966 148.963C288.873 147.246 289.993 145.65 291.301 144.214L287.309 142.362Z" fill="black"/>
<path opacity="0.2" d="M287.309 142.362C286.941 141.367 286.473 140.371 286.055 139.186C282.819 130.212 280.455 120.946 278.996 111.518C278.448 108.362 278 105.116 277.622 101.901C278.757 100.805 279.909 99.7402 281.077 98.7047C281.485 103.504 282.072 108.551 282.939 113.4C284.396 122.827 286.767 132.09 290.017 141.058C290.426 142.203 290.884 143.258 291.262 144.234" fill="black"/>
<path d="M230.052 352.157H221.161L222.585 360.829C222.641 361.061 222.748 361.277 222.898 361.463C223.048 361.649 223.236 361.8 223.451 361.904C224.117 362.238 224.852 362.412 225.597 362.412C226.341 362.412 227.076 362.238 227.742 361.904C227.958 361.801 228.148 361.651 228.298 361.465C228.448 361.279 228.554 361.062 228.608 360.829L230.052 352.157Z" fill="#FAFAFA"/>
<path d="M225.612 354.507C228.075 354.507 230.072 353.352 230.072 351.928C230.072 350.504 228.075 349.349 225.612 349.349C223.148 349.349 221.151 350.504 221.151 351.928C221.151 353.352 223.148 354.507 225.612 354.507Z" fill="#FAFAFA"/>
<path d="M184.831 325.853H175.94L177.364 334.525C177.421 334.755 177.528 334.97 177.678 335.154C177.828 335.338 178.016 335.487 178.23 335.59C178.895 335.928 179.63 336.105 180.376 336.105C181.122 336.105 181.857 335.928 182.521 335.59C182.735 335.487 182.924 335.338 183.074 335.154C183.223 334.97 183.33 334.755 183.388 334.525L184.831 325.853Z" fill="#FAFAFA"/>
<path d="M177.225 323.792C175.482 324.788 175.482 326.431 177.225 327.436C178.203 327.933 179.284 328.192 180.381 328.192C181.478 328.192 182.559 327.933 183.537 327.436C185.289 326.44 185.289 324.798 183.537 323.792C182.559 323.295 181.478 323.037 180.381 323.037C179.284 323.037 178.203 323.295 177.225 323.792Z" fill="#FAFAFA"/>
<path d="M358.974 286.925H350.083L351.497 295.596C351.55 295.829 351.654 296.046 351.802 296.232C351.95 296.418 352.139 296.568 352.353 296.672C353.019 297.01 353.756 297.187 354.504 297.187C355.251 297.187 355.988 297.01 356.654 296.672C356.869 296.567 357.057 296.417 357.207 296.231C357.357 296.045 357.464 295.828 357.52 295.596L358.974 286.925Z" fill="#FAFAFA"/>
<path d="M351.367 284.874C349.625 285.869 349.625 287.512 351.367 288.518C352.345 289.014 353.427 289.273 354.523 289.273C355.62 289.273 356.702 289.014 357.679 288.518C359.422 287.522 359.422 285.879 357.679 284.874C356.702 284.377 355.62 284.118 354.523 284.118C353.427 284.118 352.345 284.377 351.367 284.874Z" fill="#FAFAFA"/>
<path d="M313.743 260.621H304.853L306.276 269.292C306.333 269.523 306.441 269.738 306.59 269.922C306.74 270.106 306.929 270.255 307.142 270.358C307.809 270.696 308.546 270.873 309.293 270.873C310.04 270.873 310.777 270.696 311.443 270.358C311.658 270.257 311.846 270.108 311.994 269.924C312.143 269.739 312.247 269.523 312.3 269.292L313.743 260.621Z" fill="#FAFAFA"/>
<path d="M306.147 258.56C304.404 259.555 304.404 261.198 306.147 262.214C307.124 262.71 308.206 262.969 309.303 262.969C310.4 262.969 311.481 262.71 312.459 262.214C314.201 261.218 314.201 259.575 312.459 258.56C311.481 258.063 310.4 257.804 309.303 257.804C308.206 257.804 307.124 258.063 306.147 258.56Z" fill="#FAFAFA"/>
<path d="M366.062 241.386V282.793C365.979 284.288 365.545 285.743 364.797 287.04C364.048 288.337 363.005 289.44 361.751 290.26L358.237 292.251H358.177C356.508 293.071 354.638 293.392 352.791 293.177L245.862 352.436C245.735 353.874 245.286 355.265 244.548 356.505C243.81 357.746 242.803 358.805 241.601 359.604L238.097 361.595C237.993 361.663 237.883 361.72 237.768 361.765C237.71 361.799 237.65 361.828 237.589 361.854H237.539C235.414 362.737 233.046 362.847 230.848 362.163C230.594 362.087 230.344 361.993 230.102 361.884L229.982 361.834C229.803 361.755 229.634 361.665 229.475 361.576L173.352 329.308C172.098 328.489 171.055 327.386 170.306 326.089C169.557 324.791 169.124 323.336 169.041 321.841V252.407C169.126 250.912 169.56 249.458 170.309 248.161C171.057 246.864 172.1 245.761 173.352 244.94L297.037 173.485C298.373 172.807 299.85 172.454 301.348 172.454C302.846 172.454 304.323 172.807 305.659 173.485L309.173 175.476C310.458 176.317 311.561 177.408 312.416 178.684C313.272 179.96 313.861 181.395 314.151 182.903L317.536 208.321L361.761 233.859C363.021 234.686 364.067 235.798 364.814 237.106C365.562 238.415 365.989 239.881 366.062 241.386Z" fill="#37474F"/>
<path d="M309.173 175.506L305.669 173.515C304.333 172.837 302.856 172.484 301.358 172.484C299.86 172.484 298.383 172.837 297.047 173.515L173.352 244.94C173.093 245.089 172.825 245.278 172.904 245.219C170.828 246.785 169.454 249.107 169.081 251.68C169.4 249.48 171.192 248.693 173.342 249.918L176.857 251.909C178.193 252.587 179.67 252.94 181.168 252.94C182.666 252.94 184.143 252.587 185.479 251.909L309.173 180.444C311.553 179.11 311.553 176.88 309.173 175.506Z" fill="#455A64"/>
<path d="M366.062 241.386V282.793C365.979 284.288 365.545 285.743 364.796 287.04C364.047 288.337 363.004 289.44 361.751 290.26L358.236 292.251H358.177C356.623 293.057 354.872 293.402 353.129 293.247C351.899 293.175 350.699 292.835 349.614 292.251L309.71 269.263C308.457 268.443 307.414 267.34 306.665 266.043C305.916 264.746 305.483 263.291 305.399 261.796V220.338C305.481 218.843 305.914 217.387 306.663 216.09C307.412 214.793 308.456 213.69 309.71 212.871L317.526 208.351L361.751 233.889C363.008 234.711 364.054 235.819 364.803 237.122C365.552 238.424 365.983 239.885 366.062 241.386Z" fill="#263238"/>
<path d="M317.526 208.351L309.711 212.871C307.341 214.235 307.341 216.475 309.711 217.849L349.615 240.888C350.869 241.707 351.912 242.81 352.661 244.107C353.41 245.404 353.843 246.859 353.926 248.355V289.772C353.926 292.51 355.867 293.625 358.237 292.261L361.751 290.27C363.004 289.449 364.046 288.346 364.795 287.049C365.543 285.752 365.977 284.298 366.062 282.803V241.386C365.977 239.891 365.543 238.436 364.795 237.139C364.046 235.843 363.004 234.739 361.751 233.918L317.526 208.351Z" fill="#455A64"/>
<path d="M353.925 248.355V289.772C353.925 292.51 355.867 293.625 358.236 292.261L361.751 290.27C363.003 289.449 364.045 288.346 364.794 287.049C365.543 285.752 365.977 284.298 366.062 282.803V241.386C366.015 239.875 365.583 238.401 364.807 237.104L352.671 244.074C353.45 245.369 353.882 246.844 353.925 248.355Z" fill="#37474F"/>
<path d="M352.134 293.247C351.72 294.105 351.191 294.902 350.561 295.616C349.339 296.735 347.977 297.689 346.508 298.454L251.079 353.591C250.411 353.929 249.673 354.106 248.924 354.106C248.175 354.106 247.436 353.929 246.768 353.591L232.75 345.496L204.704 329.308C203.401 328.62 202.311 327.59 201.55 326.329C200.79 325.067 200.388 323.622 200.388 322.149C200.388 320.676 200.79 319.231 201.55 317.97C202.311 316.709 203.401 315.679 204.704 314.991L220.634 305.802L232.77 298.832L300.093 259.874C301.43 259.2 302.907 258.849 304.404 258.849C305.902 258.849 307.378 259.2 308.715 259.874L348.619 282.922C349.849 283.694 350.88 284.743 351.629 285.987C352.378 287.231 352.824 288.633 352.93 290.081C352.896 291.181 352.625 292.261 352.134 293.247Z" fill="#263238"/>
<path d="M251.089 344.252L350.78 286.646C351.964 285.959 352.93 286.517 352.93 287.89V292.251C352.889 292.998 352.673 293.726 352.299 294.374C351.926 295.023 351.405 295.574 350.78 295.985L251.079 353.591C249.894 354.278 248.929 353.72 248.929 352.346V347.985C248.969 347.237 249.186 346.509 249.562 345.86C249.937 345.211 250.46 344.66 251.089 344.252Z" fill="#37474F"/>
<path d="M300.093 238.518L204.704 293.635C203.449 294.454 202.405 295.556 201.656 296.854C200.907 298.151 200.474 299.607 200.393 301.102V309.824C200.474 311.32 200.907 312.775 201.656 314.072C202.405 315.37 203.449 316.472 204.704 317.291L244.618 340.329C245.954 341.007 247.43 341.36 248.929 341.36C250.427 341.36 251.904 341.007 253.24 340.329L348.619 285.192C349.873 284.373 350.916 283.27 351.665 281.973C352.414 280.676 352.847 279.221 352.93 277.725V268.994C352.848 267.498 352.415 266.043 351.666 264.745C350.917 263.448 349.873 262.345 348.619 261.527L308.715 238.488C307.377 237.815 305.898 237.467 304.4 237.472C302.902 237.477 301.427 237.836 300.093 238.518Z" fill="#37474F"/>
<path d="M248.929 322.677V341.365C247.43 341.406 245.946 341.063 244.618 340.369L204.704 317.331C203.449 316.512 202.405 315.409 201.656 314.112C200.907 312.815 200.474 311.359 200.393 309.864V301.122C200.473 299.714 200.862 298.34 201.531 297.098C202.2 295.856 203.134 294.776 204.265 293.934C202.334 295.318 202.483 297.349 204.704 298.633L244.618 321.672C245.946 322.368 247.429 322.714 248.929 322.677Z" fill="#263238"/>
<path d="M253.24 321.652L348.619 266.535C350.998 265.161 350.998 262.931 348.619 261.557L308.715 238.518C307.379 237.84 305.902 237.487 304.404 237.487C302.906 237.487 301.429 237.84 300.093 238.518L204.704 293.635C202.324 295.009 202.324 297.239 204.704 298.613L244.618 321.652C245.954 322.329 247.43 322.683 248.929 322.683C250.427 322.683 251.904 322.329 253.24 321.652Z" fill="#455A64"/>
<path d="M289.948 239.046L256.874 239.952L256.505 204.01C256.446 201.84 256.814 199.679 257.59 197.651C258.366 195.623 259.534 193.767 261.027 192.191C262.521 190.615 264.31 189.348 266.293 188.463C268.276 187.578 270.414 187.093 272.584 187.035C274.755 186.976 276.917 187.344 278.946 188.12C280.974 188.896 282.83 190.064 284.407 191.557C285.985 193.05 287.252 194.839 288.138 196.822C289.024 198.805 289.51 200.943 289.569 203.114L289.948 239.046Z" fill="#263238"/>
<path d="M280.769 222.101C283.118 221.832 286.483 220.269 289.948 226.73C293.413 233.192 300.093 247.041 300.093 247.041L306.734 239.494L311.832 243.616C311.832 243.616 304.185 255.215 301.985 257.405C300.243 259.137 298.172 259.396 295.912 256.489C293.253 253.114 284.87 239.494 284.87 239.494L280.769 222.101Z" fill="#FFA8A7"/>
<path d="M328.478 242.053C328.579 241.926 328.642 241.773 328.66 241.613C328.678 241.452 328.651 241.289 328.582 241.143C328.512 240.997 328.403 240.873 328.267 240.786C328.131 240.699 327.973 240.651 327.811 240.649C327.695 240.649 327.581 240.673 327.475 240.719C327.369 240.765 327.273 240.833 327.194 240.918C327.194 240.828 327.194 240.738 327.194 240.649C327.194 240.305 327.126 239.965 326.995 239.648C326.863 239.331 326.67 239.043 326.427 238.801C326.183 238.558 325.894 238.367 325.577 238.236C325.259 238.106 324.919 238.039 324.576 238.04C324.125 238.038 323.682 238.154 323.291 238.379C323.365 238.205 323.395 238.016 323.378 237.829C323.361 237.641 323.298 237.46 323.195 237.303C323.091 237.145 322.951 237.015 322.785 236.925C322.62 236.835 322.434 236.787 322.246 236.786C322.039 236.785 321.836 236.841 321.658 236.945C321.669 236.809 321.669 236.673 321.658 236.537C321.633 235.887 321.397 235.264 320.986 234.76C320.574 234.257 320.009 233.902 319.378 233.749C318.746 233.596 318.081 233.653 317.485 233.912C316.888 234.171 316.393 234.617 316.073 235.183C316.01 234.98 315.884 234.803 315.713 234.677C315.542 234.551 315.335 234.483 315.122 234.483C314.91 234.483 314.703 234.551 314.532 234.677C314.361 234.803 314.234 234.98 314.171 235.183C313.906 234.754 313.507 234.424 313.036 234.242C312.566 234.06 312.049 234.037 311.564 234.175C311.078 234.313 310.652 234.606 310.348 235.009C310.044 235.412 309.88 235.903 309.88 236.408C309.87 236.523 309.87 236.64 309.88 236.756C309.755 236.651 309.602 236.585 309.44 236.565C309.277 236.544 309.113 236.571 308.965 236.641C308.818 236.711 308.693 236.822 308.607 236.961C308.52 237.099 308.475 237.26 308.477 237.423C308.175 237.244 307.832 237.148 307.481 237.144C306.983 237.147 306.503 237.328 306.129 237.655C305.754 237.982 305.509 238.434 305.44 238.926C305.296 238.874 305.145 238.847 304.992 238.847C304.823 238.845 304.655 238.878 304.499 238.942C304.342 239.006 304.2 239.1 304.081 239.22C303.961 239.34 303.867 239.482 303.803 239.638C303.739 239.794 303.706 239.962 303.708 240.131C303.709 240.287 303.736 240.442 303.787 240.589C303.11 240.825 302.54 241.297 302.182 241.918C301.824 242.539 301.702 243.269 301.837 243.973C301.972 244.677 302.356 245.309 302.919 245.754C303.482 246.198 304.186 246.425 304.902 246.393L315.705 253.671L327.264 246.224C327.753 246.224 328.228 246.064 328.618 245.769C329.008 245.474 329.292 245.061 329.426 244.59C329.56 244.12 329.537 243.619 329.36 243.163C329.184 242.707 328.864 242.321 328.449 242.063L328.478 242.053Z" fill="#F5F5F5"/>
<path d="M318.512 250.466L318.134 272.936L320.493 271.582L321.26 248.873L318.512 250.466Z" fill="#FAFAFA"/>
<path d="M321.26 248.873L320.493 271.582L322.833 270.228L324.018 247.29L321.26 248.873Z" fill="#042E66"/>
<path d="M316.511 251.62C316.286 251.744 316.031 251.806 315.774 251.8V274.052C316.03 274.056 316.283 273.998 316.511 273.882L318.134 272.936L318.512 250.466L316.511 251.62Z" fill="#042E66"/>
<path d="M325.163 268.884L326.746 267.968C326.963 267.827 327.147 267.642 327.286 267.423C327.425 267.205 327.516 266.96 327.553 266.704L329.544 244.094L326.776 245.697L325.163 268.884Z" fill="#042E66"/>
<path d="M324.018 247.29L322.833 270.228L325.163 268.884L326.776 245.697L324.018 247.29Z" fill="#FAFAFA"/>
<path d="M313.036 250.466L313.414 272.936L311.064 271.582L310.298 248.873L313.036 250.466Z" fill="#042E66"/>
<path d="M310.298 248.873L311.064 271.582L308.725 270.228L307.54 247.29L310.298 248.873Z" fill="#E0E0E0"/>
<path d="M315.027 251.62C315.25 251.743 315.5 251.804 315.754 251.8V274.052C315.502 274.055 315.252 273.997 315.027 273.882L313.395 272.936L313.036 250.466L315.027 251.62Z" fill="#E0E0E0"/>
<path d="M306.395 268.884L304.812 267.968C304.594 267.828 304.408 267.642 304.268 267.424C304.127 267.206 304.034 266.961 303.996 266.704L302.005 244.094L304.783 245.697L306.395 268.884Z" fill="#E0E0E0"/>
<path d="M307.54 247.29L308.725 270.228L306.395 268.884L304.782 245.697L307.54 247.29Z" fill="#042E66"/>
<path opacity="0.1" d="M313.036 250.466L313.414 272.936L311.064 271.582L310.298 248.873L313.036 250.466Z" fill="black"/>
<path opacity="0.1" d="M307.54 247.29L308.725 270.228L306.395 268.884L304.782 245.697L307.54 247.29Z" fill="black"/>
<path d="M315.197 246.622C315.063 246.806 314.888 246.956 314.685 247.06C314.483 247.163 314.259 247.218 314.032 247.22C313.68 247.229 313.338 247.107 313.071 246.879C312.803 246.65 312.63 246.33 312.584 245.982C312.539 245.633 312.624 245.28 312.823 244.99C313.022 244.7 313.322 244.494 313.664 244.412C313.481 244.652 313.383 244.947 313.385 245.249C313.387 245.627 313.54 245.989 313.808 246.256C314.077 246.523 314.44 246.672 314.818 246.672C314.946 246.676 315.074 246.659 315.197 246.622Z" fill="#E0E0E0"/>
<path d="M316.869 246.722C316.885 246.869 316.865 247.018 316.811 247.155C316.758 247.293 316.672 247.416 316.561 247.514C316.451 247.612 316.318 247.682 316.175 247.718C316.031 247.754 315.881 247.755 315.737 247.722C315.594 247.688 315.46 247.62 315.347 247.524C315.235 247.428 315.147 247.307 315.091 247.17C315.035 247.033 315.013 246.885 315.026 246.738C315.039 246.591 315.087 246.449 315.167 246.324C315.186 246.516 315.266 246.698 315.396 246.842C315.561 247.024 315.792 247.133 316.038 247.146C316.284 247.159 316.526 247.075 316.71 246.911C316.774 246.858 316.828 246.794 316.869 246.722Z" fill="#E0E0E0"/>
<path d="M311.174 239.952C311.337 240.205 311.416 240.502 311.4 240.803C311.385 241.103 311.275 241.391 311.087 241.625C310.898 241.86 310.641 242.029 310.351 242.109C310.062 242.19 309.754 242.177 309.472 242.073C309.178 241.962 308.929 241.758 308.763 241.491C308.598 241.225 308.525 240.911 308.556 240.599C308.72 240.85 308.961 241.042 309.243 241.147C309.418 241.214 309.605 241.246 309.792 241.241C309.98 241.235 310.164 241.193 310.335 241.116C310.507 241.04 310.661 240.93 310.79 240.793C310.918 240.656 311.018 240.496 311.085 240.32C311.129 240.201 311.159 240.078 311.174 239.952Z" fill="#E0E0E0"/>
<path d="M308.954 241.306C309.023 241.436 309.059 241.582 309.059 241.729C309.059 241.877 309.023 242.022 308.954 242.152C308.9 242.262 308.825 242.359 308.733 242.44C308.641 242.52 308.534 242.581 308.419 242.62C308.303 242.659 308.181 242.674 308.059 242.666C307.937 242.657 307.819 242.625 307.709 242.57C307.529 242.482 307.382 242.337 307.292 242.157C307.202 241.977 307.174 241.772 307.212 241.575C307.289 241.728 307.407 241.856 307.553 241.946C307.699 242.035 307.867 242.083 308.038 242.083C308.209 242.083 308.377 242.035 308.523 241.946C308.669 241.856 308.787 241.728 308.864 241.575C308.911 241.492 308.942 241.4 308.954 241.306Z" fill="#E0E0E0"/>
<path d="M323.758 243.377C323.772 243.606 323.731 243.835 323.638 244.044C323.544 244.254 323.402 244.438 323.223 244.581C323.045 244.725 322.834 244.823 322.609 244.868C322.384 244.913 322.152 244.904 321.931 244.84C321.711 244.777 321.509 244.662 321.342 244.504C321.176 244.347 321.049 244.151 320.974 243.935C320.898 243.718 320.876 243.487 320.908 243.26C320.94 243.033 321.027 242.817 321.16 242.63C321.182 242.933 321.297 243.221 321.488 243.456C321.729 243.743 322.072 243.924 322.445 243.96C322.818 243.995 323.189 243.882 323.48 243.646C323.585 243.57 323.679 243.48 323.758 243.377Z" fill="#E0E0E0"/>
<path d="M325.302 242.72C325.317 242.867 325.298 243.015 325.244 243.153C325.19 243.291 325.105 243.414 324.994 243.512C324.883 243.609 324.751 243.679 324.607 243.715C324.464 243.752 324.314 243.753 324.17 243.719C324.026 243.686 323.892 243.618 323.78 243.522C323.668 243.426 323.58 243.305 323.524 243.168C323.468 243.031 323.446 242.883 323.459 242.735C323.472 242.588 323.52 242.446 323.599 242.321C323.617 242.491 323.682 242.653 323.787 242.789C323.891 242.924 324.031 243.028 324.191 243.089C324.35 243.15 324.524 243.165 324.692 243.133C324.86 243.101 325.016 243.024 325.142 242.909C325.206 242.856 325.26 242.792 325.302 242.72Z" fill="#E0E0E0"/>
<path d="M321.27 241.147C321.449 241.232 321.597 241.372 321.69 241.547C321.784 241.722 321.818 241.922 321.789 242.119C321.76 242.315 321.669 242.497 321.529 242.637C321.389 242.778 321.207 242.869 321.011 242.899C320.81 242.933 320.604 242.899 320.424 242.804C320.244 242.709 320.1 242.556 320.016 242.371C320.191 242.458 320.39 242.486 320.583 242.451C320.703 242.432 320.818 242.389 320.922 242.324C321.025 242.26 321.114 242.176 321.185 242.077C321.255 241.978 321.305 241.865 321.332 241.747C321.358 241.628 321.361 241.505 321.34 241.386C321.333 241.302 321.31 241.221 321.27 241.147Z" fill="#E0E0E0"/>
<path d="M306.395 237.473C306.395 238.18 307.321 239.155 307.859 239.693C308.396 240.231 310.089 241.107 310.547 241.734C311.005 242.361 311.662 242.321 311.851 241.306C312.04 240.29 310.338 238.498 310.298 237.961C310.258 237.423 312.488 237.473 313.902 238.01C315.316 238.548 316.829 241.077 317.377 242.321C317.924 243.566 321.359 243.466 321.26 239.892C321.16 236.318 319.388 234.625 317.426 233.709C315.254 232.791 312.852 232.565 310.547 233.062C308.347 233.56 305.937 235.352 304.782 238.857C305.012 238.812 305.25 238.832 305.469 238.916C305.51 238.623 305.613 238.342 305.773 238.093C305.933 237.843 306.145 237.632 306.395 237.473Z" fill="#FFA8A7"/>
<path d="M241.521 232.545C244.578 231.429 261.513 224.171 267.248 224.281L267.865 238.369L249.646 246.642L241.521 232.545Z" fill="#E0E0E0"/>
<path d="M311.921 312.91C311.344 313.517 310.686 314.214 310.756 314.981C310.974 316.602 311.694 318.113 312.817 319.302C314.41 321.024 315.465 324.28 315.804 326.56C316.142 328.84 316.302 334.525 319.139 336.735C321.977 338.945 328.856 340.1 328.856 335.949C328.856 331.797 320.643 315.797 320.643 315.797L311.921 312.91Z" fill="#263238"/>
<path d="M315.734 315.578C316.882 318.492 317.811 321.487 318.512 324.539C319.209 327.874 320.195 330.224 321.897 331.12C323.6 332.016 326.139 331.857 325.183 329.587C324.227 327.317 320.593 315.817 320.593 315.817L315.734 315.578Z" fill="#F28F8F"/>
<path d="M293.751 258.779C293.751 258.779 307.272 264.962 313.843 268.496C320.414 272.03 326.676 275.465 327.98 278.323C329.364 281.31 328.976 288.498 328.289 295.387C327.602 302.277 326.059 314.652 326.059 314.652L306.804 285.78L287.459 272.996L293.751 258.779Z" fill="#042E66"/>
<path opacity="0.1" d="M318.731 289.175C316.83 284.754 312.688 281.817 308.775 279.418C305.689 277.506 297.993 273.026 294.976 271.274C295.58 269.763 295.916 268.16 295.972 266.535C295.972 266.535 295.026 268.705 293.911 270.666L293.104 271.991L312.917 286.775L326.527 311.078C326.527 311.078 320.633 293.546 318.731 289.175Z" fill="black"/>
<path d="M327.701 336.257C327.144 336.626 327.223 338 327.273 339.015C327.323 340.031 326.606 341.345 328.069 342.898C329.533 344.451 332.002 344.59 334.043 346.721C336.084 348.852 339.111 352.764 344.607 353.053C350.102 353.342 353.876 350.932 354.612 349.19C355.349 347.448 354.234 346.094 350.52 344.69C346.538 343.197 345.463 342.759 345.463 342.759L327.701 336.257Z" fill="#263238"/>
<path d="M331.684 324.419C331.684 324.419 335.388 331.11 337.469 334.127C339.779 337.254 342.556 340.007 345.702 342.291C346.399 342.818 347.923 343.764 348.49 344.192C348.626 344.267 348.743 344.372 348.831 344.5C348.919 344.628 348.976 344.775 348.998 344.929C349.019 345.082 349.004 345.239 348.954 345.386C348.904 345.533 348.82 345.666 348.709 345.775C347.793 347.109 342.984 348.374 339.838 346.9C336.692 345.427 333.208 342.091 331.246 340.777C330.251 340.13 329.335 339.503 328.648 339.035C328.323 338.819 328.06 338.521 327.885 338.172C327.71 337.822 327.63 337.434 327.652 337.044C327.652 336.815 327.652 336.556 327.652 336.247C327.652 334.604 324.297 328.581 324.297 328.581L331.684 324.419Z" fill="#FFA8A7"/>
<path d="M263.833 266.415C263.893 271.911 264.162 274.977 267.049 279.995C269.936 285.013 277.005 288.179 285.259 290.947C292.128 293.257 302.184 296.552 304.235 296.98C306.286 297.409 306.654 298.484 307.122 302.038C307.59 305.592 309.97 311.058 315.336 317.42C319.235 322.141 322.874 327.07 326.238 332.185C326.238 332.185 331.843 332.185 333.984 328.452C333.984 328.452 318.382 291.614 315.883 287.393C313.384 283.171 293.124 271.941 293.124 271.941C293.124 271.941 293.462 264.324 293.731 258.779L263.833 266.415Z" fill="#042E66"/>
<path d="M267.239 224.281L262.36 226.73C262.36 226.73 265.725 230.105 264.799 238.399C264.152 244.273 262.808 244.781 259.821 246.433C263.804 255.454 263.804 268.735 263.804 268.735C263.804 268.735 270.823 272.498 283.577 268.874C294.787 265.698 293.672 258.779 293.672 258.779L288.853 255.065L287.768 246.284C287.768 246.284 291.561 242.471 289.919 235.681C288.276 228.891 280.689 222.101 280.689 222.101H277.702L267.239 224.281Z" fill="#FAFAFA"/>
<path d="M291.949 264.076C286.245 266.206 278.011 265.868 274.128 264.076C268.672 261.557 266.392 254.637 266.84 250.227C267.577 243.028 266.97 238.16 265.247 233.699H264.869C265.012 235.26 264.992 236.832 264.809 238.389C264.162 244.263 262.818 244.771 259.831 246.423C263.565 255.225 263.813 268.725 263.813 268.725C263.813 268.725 270.833 272.488 283.586 268.864C287.21 267.869 290.127 266.246 291.88 264.066L291.949 264.076Z" fill="#F0F0F0"/>
<path d="M282.979 194.164C284.751 195.159 287.031 199.48 287.061 208.69C287.061 216.505 284.621 218.497 283.367 219.084C282.113 219.671 279.653 219.403 277.254 219.084L277.304 222.32C277.304 222.32 281.595 227.019 281.445 229.169C281.296 231.32 275.95 232.425 272.814 230.434C270.545 228.784 268.569 226.765 266.969 224.46L266.73 213.638C266.73 213.638 265.366 215.042 262.937 213.031C260.946 211.368 260.189 208.491 261.673 206.898C262.059 206.517 262.529 206.235 263.046 206.072C263.563 205.91 264.111 205.873 264.645 205.964C265.179 206.056 265.684 206.273 266.118 206.598C266.551 206.923 266.901 207.347 267.139 207.834C270.263 207.621 273.285 206.632 275.93 204.956C277.87 203.837 279.519 202.277 280.744 200.402C281.968 198.527 282.734 196.39 282.979 194.164Z" fill="#FFA8A7"/>
<path d="M278.299 206.967C278.313 207.098 278.301 207.23 278.263 207.357C278.225 207.483 278.163 207.6 278.079 207.702C277.996 207.804 277.893 207.888 277.777 207.95C277.661 208.012 277.534 208.05 277.403 208.063C277.271 208.072 277.138 208.055 277.012 208.012C276.886 207.969 276.77 207.902 276.671 207.814C276.572 207.726 276.491 207.619 276.434 207.499C276.377 207.379 276.344 207.249 276.338 207.117C276.328 206.986 276.344 206.855 276.385 206.73C276.426 206.605 276.491 206.49 276.577 206.391C276.749 206.19 276.995 206.066 277.259 206.046C277.523 206.027 277.784 206.112 277.985 206.285C278.185 206.458 278.309 206.703 278.329 206.967H278.299Z" fill="#263238"/>
<path d="M278.738 213.578L281.037 214.245C281 214.398 280.933 214.542 280.839 214.669C280.746 214.795 280.627 214.901 280.492 214.981C280.356 215.061 280.206 215.113 280.05 215.133C279.894 215.154 279.736 215.143 279.584 215.101C279.274 215.005 279.014 214.792 278.856 214.509C278.699 214.225 278.656 213.892 278.738 213.578Z" fill="#F28F8F"/>
<path d="M286.264 203.732L284.272 202.417C284.35 202.28 284.455 202.161 284.581 202.066C284.707 201.971 284.851 201.904 285.004 201.867C285.157 201.831 285.317 201.826 285.472 201.854C285.627 201.882 285.774 201.942 285.905 202.029C286.17 202.215 286.354 202.494 286.42 202.81C286.487 203.126 286.431 203.455 286.264 203.732Z" fill="#263238"/>
<path d="M285.866 206.051C285.875 206.248 285.827 206.442 285.726 206.611C285.625 206.779 285.477 206.914 285.299 206.998C285.122 207.083 284.924 207.113 284.729 207.085C284.535 207.057 284.353 206.972 284.207 206.841C284.061 206.71 283.957 206.538 283.908 206.348C283.859 206.158 283.867 205.958 283.931 205.772C283.996 205.587 284.114 205.424 284.27 205.306C284.427 205.187 284.615 205.118 284.811 205.106C284.942 205.097 285.074 205.116 285.199 205.159C285.323 205.202 285.438 205.27 285.536 205.358C285.634 205.446 285.714 205.552 285.771 205.672C285.827 205.791 285.86 205.92 285.866 206.051Z" fill="#263238"/>
<path d="M281.426 205.125L281.545 211.517L284.622 210.472L281.426 205.125Z" fill="#F28F8F"/>
<path d="M277.254 219.074C274.745 218.815 269.538 217.471 268.672 215.45C269.026 216.473 269.682 217.366 270.554 218.009C272.137 219.283 277.304 220.637 277.304 220.637L277.254 219.074Z" fill="#F28F8F"/>
<path d="M277.304 222.31V220.637C277.304 220.637 281.366 219.91 283.506 220.637C285.463 221.34 287.277 222.388 288.863 223.733C290.04 225.168 290.718 226.947 290.794 228.801C290.744 231.071 288.564 231.858 285.627 230.016C284.044 229.02 283.437 227.109 282.391 226.123C280.437 225.239 278.701 223.937 277.304 222.31Z" fill="#B16668"/>
<path d="M262.37 226.73C257.939 228.771 255.261 230.075 253.818 236.686C252.374 243.297 246.56 274.868 246.56 274.868L253.449 277.068C253.449 277.068 258.517 261.407 259.951 256.16C261.384 250.914 264.192 243.038 264.809 238.389C265.426 233.739 265.924 230.533 262.37 226.73Z" fill="#FFA8A7"/>
<path d="M260.736 360.241H268.243V347.398H260.736V360.241Z" fill="#B16668"/>
<path d="M280.987 349.728L288.484 349.987L288.863 336.397L281.366 336.138L280.987 349.728Z" fill="#B16668"/>
<path d="M268.234 356.876V355.542C269.02 355.891 272.565 363.388 275.8 366.345C278.369 368.684 282.899 371.9 282.77 374.12C282.62 376.998 278.528 378.272 274.994 377.436C272.236 376.788 268.293 375.116 266.402 373.075C264.51 371.034 263.903 368.356 262.907 367.022C261.912 365.687 259.652 364.194 259.114 362.641C258.825 361.795 259.174 359.933 259.582 358.37C259.99 356.807 260.368 355.333 260.866 355.472V356.359C262.024 357.274 263.462 357.763 264.938 357.742C266.163 357.772 268.234 357.782 268.234 356.876Z" fill="#263238"/>
<path d="M288.564 347.677C288.952 347.677 289.271 348.234 290.127 349.17C291.65 350.449 293.346 351.504 295.165 352.306C297.973 353.71 305.33 355.602 307.799 356.707C309.342 357.404 308.954 359.803 306.804 361.147C305.171 362.143 299.974 363.139 295.354 362.093C292.825 361.526 288.992 359.783 287.12 359.485C285.059 359.166 281.276 358.768 279.743 357.713C278.21 356.657 278.827 354.397 279.255 352.456C279.733 350.345 280.41 347.099 281.107 347.249V347.916C282.013 349.28 286.603 349.837 288.584 348.832L288.564 347.677Z" fill="#263238"/>
<path d="M222.924 287.741C224.975 297.18 231.367 302.675 242.906 307.275C252.075 310.899 260.747 313.975 260.747 313.975C259.64 318.749 259.065 323.631 259.035 328.531C258.965 335.849 260.359 352.058 260.359 352.058C260.359 352.058 265.337 354.158 268.762 351.978C268.762 351.978 270.614 339.413 272.027 330.254C274.228 315.967 275.781 308.768 275.134 306.08C274.735 304.398 268.782 300.206 263.545 296.622L279.126 303.77C278.816 306.913 278.683 310.071 278.728 313.229C278.987 323.185 280.988 342.729 280.988 342.729C280.988 342.729 286.444 345.168 289.152 343.057C289.152 343.057 295.454 296.512 294.329 293.137C293.015 289.155 288.744 287.632 267.766 278.701C262.927 276.63 255.689 274.241 255.689 274.241L222.924 287.741Z" fill="#042E66"/>
<path opacity="0.1" d="M222.924 287.741C224.975 297.18 231.367 302.675 242.906 307.275C252.075 310.899 260.747 313.975 260.747 313.975C259.64 318.749 259.065 323.631 259.035 328.531C258.965 335.849 260.359 352.058 260.359 352.058C260.359 352.058 265.337 354.158 268.762 351.978C268.762 351.978 270.614 339.413 272.027 330.254C274.228 315.967 275.781 308.768 275.134 306.08C274.735 304.398 268.782 300.206 263.545 296.622L279.126 303.77C278.816 306.913 278.683 310.071 278.728 313.229C278.987 323.185 280.988 342.729 280.988 342.729C280.988 342.729 286.444 345.168 289.152 343.057C289.152 343.057 295.454 296.512 294.329 293.137C293.015 289.155 288.744 287.632 267.766 278.701C262.927 276.63 255.689 274.241 255.689 274.241L222.924 287.741Z" fill="black"/>
<path d="M223.591 235.9C221.354 239.543 220.144 243.722 220.086 247.996L218.702 262.652C219.369 274.529 219.996 279.338 222.057 287.841C227.384 293.635 249.775 286.925 255.689 274.281C255.689 274.281 252.842 257.714 252.294 246.403C251.906 238.379 249.208 232.694 241.522 232.525L231.665 233.879L223.591 235.9Z" fill="#F5F5F5"/>
<path d="M252.457 218.208C256.671 213.994 256.671 207.16 252.457 202.946C248.242 198.731 241.409 198.731 237.194 202.946C232.979 207.16 232.979 213.994 237.194 218.208C241.409 222.423 248.242 222.423 252.457 218.208Z" fill="#263238"/>
<path d="M227.175 217.023C227.175 217.023 228.828 224.789 229.495 226.073C229.928 226.85 230.639 227.433 231.486 227.706L231.376 222.24L227.175 217.023Z" fill="#263238"/>
<path d="M229.256 205.882C228.677 205.814 228.089 205.879 227.539 206.072C226.989 206.266 226.49 206.582 226.08 206.997C224.716 208.391 225.483 212.752 227.175 217.023L230.291 217.371L229.256 205.882Z" fill="#263238"/>
<path d="M231.227 217.381C230.6 217.75 229.714 216.555 228.937 215.749C228.16 214.942 225.652 213.837 224.397 216.485C223.143 219.134 225.502 222.738 227.483 223.355C230.898 224.43 231.416 222.24 231.416 222.24L231.675 234.556C234.662 237.841 244.678 237.055 242.786 234.227V230.484C244.306 230.726 245.848 230.806 247.386 230.723C249.895 230.334 251.478 228.353 252.234 225.635C253.459 221.264 253.927 217.74 252.891 209.158C251.746 199.749 240.805 199.65 234.891 203.373C228.977 207.097 231.227 217.381 231.227 217.381Z" fill="#B16668"/>
<path d="M231.226 218.427C230.918 218.427 229.723 216.436 228.937 215.749C227.861 214.753 229.255 205.882 229.255 205.882C228.968 205.118 228.909 204.286 229.086 203.489C229.263 202.692 229.667 201.963 230.251 201.392C231.734 199.759 234.233 199.58 238.415 198.923C240.625 198.574 243.98 197.927 246.181 197.539C248.819 197.051 250.999 196.543 252.861 198.146C253.592 198.78 254.108 199.625 254.34 200.564C254.572 201.504 254.507 202.492 254.155 203.393C253.615 204.509 252.667 205.375 251.507 205.812C251.507 205.812 250.362 206.808 246.36 207.316C242.668 207.595 238.958 207.525 235.279 207.107C234.124 206.947 233.875 208.102 233.287 211.149C232.74 213.837 232.282 218.407 231.226 218.427Z" fill="#263238"/>
<path d="M229.256 206.539L225.482 204.548C225.599 204.29 225.768 204.059 225.976 203.869C226.185 203.678 226.431 203.532 226.698 203.439C226.965 203.345 227.248 203.308 227.531 203.327C227.813 203.347 228.088 203.423 228.34 203.552C228.85 203.835 229.23 204.304 229.401 204.861C229.571 205.418 229.52 206.02 229.256 206.539Z" fill="#263238"/>
<path d="M242.776 230.484C242.776 230.484 237.17 229.349 235.209 228.313C234.059 227.711 233.116 226.778 232.501 225.635C232.797 226.779 233.318 227.852 234.034 228.791C235.468 230.623 242.776 231.977 242.776 231.977V230.484Z" fill="#9A4A4D"/>
<path d="M241.422 215.978C241.412 216.2 241.336 216.415 241.203 216.594C241.071 216.773 240.889 216.909 240.679 216.985C240.469 217.06 240.242 217.072 240.026 217.018C239.809 216.964 239.614 216.847 239.464 216.682C239.315 216.517 239.218 216.311 239.185 216.091C239.152 215.87 239.186 215.645 239.282 215.444C239.377 215.243 239.53 215.074 239.722 214.96C239.913 214.846 240.134 214.791 240.356 214.803C240.65 214.826 240.925 214.96 241.123 215.178C241.321 215.397 241.428 215.683 241.422 215.978Z" fill="#263238"/>
<path d="M239.62 211.328L237.221 212.652C237.051 212.323 237.014 211.941 237.117 211.585C237.221 211.229 237.458 210.927 237.778 210.741C237.937 210.654 238.111 210.6 238.291 210.583C238.471 210.565 238.653 210.584 238.825 210.639C238.998 210.694 239.157 210.784 239.294 210.902C239.43 211.02 239.541 211.165 239.62 211.328Z" fill="#263238"/>
<path d="M242.269 223.733L244.827 224.729C244.771 224.901 244.681 225.06 244.563 225.196C244.444 225.333 244.299 225.444 244.136 225.523C243.973 225.602 243.797 225.647 243.616 225.656C243.435 225.665 243.255 225.638 243.085 225.575C242.91 225.508 242.751 225.407 242.615 225.278C242.48 225.149 242.371 224.995 242.295 224.824C242.219 224.653 242.178 224.468 242.173 224.281C242.169 224.094 242.201 223.908 242.269 223.733Z" fill="#9A4A4D"/>
<path d="M251.726 212.314L249.536 210.631C249.639 210.484 249.771 210.359 249.923 210.263C250.076 210.168 250.246 210.104 250.423 210.077C250.601 210.049 250.782 210.057 250.957 210.101C251.131 210.145 251.295 210.224 251.438 210.332C251.731 210.563 251.924 210.897 251.978 211.265C252.031 211.634 251.941 212.009 251.726 212.314Z" fill="#263238"/>
<path d="M250.77 215.659C250.761 215.879 250.687 216.092 250.557 216.27C250.428 216.448 250.249 216.585 250.043 216.662C249.836 216.74 249.612 216.755 249.397 216.706C249.182 216.657 248.986 216.546 248.834 216.387C248.682 216.228 248.579 216.028 248.54 215.811C248.5 215.594 248.525 215.371 248.612 215.168C248.698 214.965 248.842 214.792 249.026 214.671C249.21 214.549 249.425 214.484 249.645 214.484C249.949 214.495 250.237 214.623 250.447 214.843C250.657 215.062 250.773 215.355 250.77 215.659Z" fill="#263238"/>
<path d="M245.215 214.753L245.344 221.563L249.376 220.677L245.215 214.753Z" fill="#9A4A4D"/>
<path opacity="0.15" d="M263.544 296.622L254.534 291.793C254.534 291.793 258.208 289.145 258.696 285.7C258.696 285.7 258.915 289.932 257.322 291.793L276.866 302.745L263.544 296.622Z" fill="black"/>
<path d="M233.746 359.196L233.746 317.789C233.663 316.293 233.229 314.838 232.48 313.541C231.731 312.244 230.688 311.141 229.435 310.322L185.21 284.794L181.825 259.366C181.535 257.859 180.945 256.426 180.09 255.152C179.235 253.877 178.132 252.788 176.847 251.949L173.342 249.958C170.963 248.594 169.031 249.709 169.031 252.447L169.031 321.881C169.113 323.376 169.546 324.832 170.295 326.129C171.044 327.426 172.088 328.529 173.342 329.348L229.405 361.685C231.804 363.059 233.746 361.934 233.746 359.196Z" fill="#263238"/>
<path d="M245.872 310.78L245.872 352.197C245.877 352.29 245.877 352.383 245.872 352.476C245.745 353.914 245.296 355.304 244.558 356.545C243.821 357.786 242.814 358.845 241.611 359.644L238.107 361.635C238.004 361.703 237.893 361.76 237.778 361.805C237.72 361.838 237.661 361.868 237.599 361.894H237.549C237.436 361.945 237.319 361.988 237.201 362.024C235.162 362.77 232.936 362.833 230.859 362.203C230.604 362.126 230.354 362.033 230.112 361.924C232.183 362.78 233.786 361.615 233.796 359.136L233.796 317.789C233.712 316.293 233.279 314.838 232.53 313.541C231.781 312.244 230.738 311.141 229.485 310.322L221.659 305.802L185.26 284.794L193.085 280.274C194.423 279.602 195.899 279.251 197.396 279.251C198.893 279.251 200.37 279.602 201.707 280.274L233.796 298.802L241.611 303.313C242.856 304.137 243.89 305.242 244.63 306.539C245.37 307.836 245.796 309.288 245.872 310.78Z" fill="#455A64"/>
<path d="M233.745 317.789V359.196C233.745 361.675 232.132 362.84 230.062 361.984C230.304 362.093 230.553 362.186 230.808 362.263C232.886 362.892 235.112 362.829 237.15 362.083C237.269 362.047 237.385 362.004 237.499 361.954H237.548C237.61 361.928 237.67 361.898 237.728 361.864C237.843 361.82 237.953 361.763 238.056 361.695L241.561 359.704C242.763 358.905 243.77 357.846 244.508 356.605C245.245 355.364 245.695 353.973 245.822 352.535C245.827 352.443 245.827 352.35 245.822 352.257V310.78C245.77 309.281 245.335 307.821 244.558 306.538L232.431 313.508C233.227 314.799 233.679 316.273 233.745 317.789Z" fill="#37474F"/>
<path d="M220.345 239.494C217.208 240.609 208.178 259.755 206.227 263.498C204.275 267.242 199.118 278.801 200.124 283.46C201.129 288.12 220.952 297.956 222.923 299.917C225.283 302.287 225.91 303.432 229.445 303.8C232.332 304.109 233.168 306.369 235.936 307.564C238.704 308.758 243.522 306.678 241.382 302.735C238.863 298.076 236.792 297.05 234.492 296.104C231.296 294.79 229.365 294.681 227.175 293.327C224.984 291.973 212.171 279.816 212.171 279.816L218.702 267.082C218.702 267.082 222.684 257.604 223.013 250.346C223.341 243.088 220.345 239.494 220.345 239.494Z" fill="#B16668"/>
<path d="M223.591 235.9C217.617 238.08 214.531 244.074 211.146 250.834C207.761 257.594 204.694 264.882 204.694 264.882C208.035 268.321 212.315 270.7 217 271.722L223.432 259.496C223.432 259.496 230.291 246.105 223.591 235.9Z" fill="#E0E0E0"/>
</svg>
