<svg width="15" height="15" viewBox="0 0 15 15" fill="none" xmlns="http://www.w3.org/2000/svg">
<g id="pepicons-pencil:clapperboard">
<g id="Group">
<path id="Vector" fill-rule="evenodd" clip-rule="evenodd" d="M0.575986 3.72899C0.554808 3.63183 0.573093 3.53022 0.626822 3.44654C0.68055 3.36285 0.76532 3.30393 0.862486 3.28274L11.8515 0.876744C11.8996 0.866137 11.9493 0.865115 11.9978 0.873737C12.0464 0.882359 12.0927 0.900456 12.1342 0.926993C12.1757 0.95353 12.2116 0.987987 12.2398 1.0284C12.268 1.0688 12.2879 1.11437 12.2985 1.16249L12.78 3.35999C12.7906 3.40816 12.7916 3.45794 12.7829 3.50649C12.7742 3.55504 12.7561 3.6014 12.7295 3.64293C12.7029 3.68445 12.6683 3.72031 12.6278 3.74846C12.5873 3.77662 12.5417 3.79651 12.4935 3.80699L1.50374 6.21299C1.40667 6.23419 1.30517 6.21601 1.2215 6.16243C1.13783 6.10886 1.07884 6.02427 1.05749 5.92724L0.575986 3.72899ZM1.38899 3.93524L1.70999 5.39999L11.967 3.15374L11.646 1.68824L1.38899 3.93524Z" fill="white"/>
<path id="Vector_2" fill-rule="evenodd" clip-rule="evenodd" d="M7.39048 4.75351L5.44498 2.87626L5.96548 2.33626L7.91248 4.21351L7.39048 4.75351ZM4.46023 5.39476L2.51398 3.51826L3.03448 2.97826L4.97998 4.85551L4.45948 5.39551L4.46023 5.39476ZM10.3215 4.11151L8.37448 2.23501L8.89573 1.69501L10.842 3.57226L10.3215 4.11151ZM6.74173 8.45776L8.24173 6.20776L7.61773 5.79226L6.11773 8.04226L6.74173 8.45776ZM9.74173 8.45776L11.2417 6.20776L10.6177 5.79226L9.11773 8.04226L9.74173 8.45776ZM3.74173 8.45776L5.24173 6.20776L4.61773 5.79226L3.11773 8.04226L3.74173 8.45776Z" fill="white"/>
<path id="Vector_3" fill-rule="evenodd" clip-rule="evenodd" d="M1.17975 6C1.17975 5.90054 1.21926 5.80516 1.28958 5.73484C1.35991 5.66451 1.45529 5.625 1.55475 5.625H12.8047C12.9042 5.625 12.9996 5.66451 13.0699 5.73484C13.1402 5.80516 13.1797 5.90054 13.1797 6V12.75C13.1797 12.8495 13.1402 12.9448 13.0699 13.0152C12.9996 13.0855 12.9042 13.125 12.8047 13.125H1.55475C1.45529 13.125 1.35991 13.0855 1.28958 13.0152C1.21926 12.9448 1.17975 12.8495 1.17975 12.75V6ZM1.92975 6.375V12.375H12.4297V6.375H1.92975Z" fill="white"/>
<path id="Vector_4" fill-rule="evenodd" clip-rule="evenodd" d="M13.1797 8.625H1.17975V7.875H13.1797V8.625Z" fill="white"/>
</g>
</g>
</svg>
