<svg width="19" height="25" viewBox="0 0 19 25" fill="none" xmlns="http://www.w3.org/2000/svg">
<path fill-rule="evenodd" clip-rule="evenodd" d="M0.729648 6.215C0.702821 6.05305 0.725983 5.88372 0.794039 5.74424C0.862095 5.60476 0.969471 5.50656 1.09255 5.47125L15.0119 1.46125C15.0729 1.44357 15.1359 1.44187 15.1973 1.45624C15.2588 1.47061 15.3175 1.50077 15.37 1.545C15.4226 1.58923 15.4681 1.64666 15.5038 1.714C15.5395 1.78135 15.5648 1.8573 15.5781 1.9375L16.188 5.6C16.2015 5.68028 16.2027 5.76325 16.1917 5.84416C16.1808 5.92508 16.1578 6.00235 16.1241 6.07155C16.0903 6.14076 16.0466 6.20053 15.9953 6.24745C15.944 6.29437 15.8862 6.32752 15.8251 6.345L1.9048 10.355C1.78185 10.3903 1.65328 10.36 1.5473 10.2707C1.44132 10.1814 1.3666 10.0405 1.33955 9.87875L0.729648 6.215ZM1.75945 6.55875L2.16605 9L15.1582 5.25625L14.7516 2.81375L1.75945 6.55875Z" fill="white"/>
<path fill-rule="evenodd" clip-rule="evenodd" d="M9.36123 7.9225L6.89693 4.79375L7.55623 3.89375L10.0224 7.0225L9.36123 7.9225ZM5.64958 8.99125L3.18433 5.86375L3.84363 4.96375L6.30793 8.0925L5.64863 8.9925L5.64958 8.99125ZM13.0738 6.8525L10.6076 3.725L11.2679 2.825L13.7331 5.95375L13.0738 6.8525ZM8.53948 14.0963L10.4395 10.3463L9.64908 9.65375L7.74908 13.4037L8.53948 14.0963ZM12.3395 14.0963L14.2395 10.3463L13.4491 9.65375L11.5491 13.4037L12.3395 14.0963ZM4.73948 14.0963L6.63948 10.3463L5.84908 9.65375L3.94908 13.4037L4.73948 14.0963Z" fill="white"/>
<path fill-rule="evenodd" clip-rule="evenodd" d="M1.49438 10C1.49438 9.83424 1.54443 9.67527 1.63351 9.55806C1.72259 9.44085 1.84341 9.375 1.96938 9.375H16.2194C16.3454 9.375 16.4662 9.44085 16.5553 9.55806C16.6443 9.67527 16.6944 9.83424 16.6944 10V21.25C16.6944 21.4158 16.6443 21.5747 16.5553 21.6919C16.4662 21.8092 16.3454 21.875 16.2194 21.875H1.96938C1.84341 21.875 1.72259 21.8092 1.63351 21.6919C1.54443 21.5747 1.49438 21.4158 1.49438 21.25V10ZM2.44438 10.625V20.625H15.7444V10.625H2.44438Z" fill="white"/>
<path fill-rule="evenodd" clip-rule="evenodd" d="M16.6944 14.375H1.49438V13.125H16.6944V14.375Z" fill="white"/>
</svg>
